<svg width="128.35" height="45.341" viewBox="0 0 33.959 11.997" xmlns="http://www.w3.org/2000/svg"><defs><path id="a" d="M64.761 164.6h373.724v118.728H64.761z"/></defs><g aria-label="Academy" transform="rotate(-6.999 -480.534 216.133) scale(.36369)" style="fill:#f0f"><path d="M77.438 184.6q-4.434.879-7.422 2.07-1.797 2.637-3.946 6.328l-1.035 1.816q-.273.489-.84 1.407-.625 1.074-1.308 1.074-.371 0-.625-.293-.254-.254-.254-.566 0-.547 1.465-3.106.8-1.387 2.422-3.926.625-.976.996-1.601-1.172.332-2.149.761-.469.215-.781.215-.39 0-.606-.351-.156-.215-.156-.508 0-.664.469-.938.762-.468 2.734-1.074 1.465-.469 2.325-.86.41-.507 2.148-2.987.742-1.075 4.219-5.079 2.5-2.93 5.156-5.449 1.543-1.484 2.363-1.484.508 0 .88.41.312.371.312.82 0 .547-.547 1.914-.938 2.403-1.797 5.137-.742 2.422-.996 3.711.351 0 .469-.02.566-.019.937-.019 1.133 0 1.133.86 0 .37-.254.742-.234.351-.547.43-.117.038-.644.038-1.114 0-1.66.137-.47 1.387-1.485 7.09-.527 3.789-.508 4.648 0 1.407-.84 1.407-.664 0-1.035-.684-.273-.469-.273-1.27 0-2.695.957-7.265.488-2.305.722-3.535zm.546-2.11q.176-.566.899-3.027.176-.645.898-2.559.723-1.972 1.153-3.164-1.27.84-2.579 2.227-4.609 4.96-6.503 8.105.722-.176 3.105-.879.684-.195 3.027-.703zM88.492 183.271q1.543 0 1.543 1.622 0 1.425-1.113 2.87-.86 1.094-1.504 1.094-.547 0-.547-.625 0-.332.156-.527.059-.078.47-.45.35-.331.722-.995.254-.45.254-.723 0-.312-.352-.312-.41 0-1.25.644-1.328 1.035-2.656 3.242-1.367 2.305-1.367 3.633 0 .43.254.762.37.508.996.508 1.23 0 2.91-1.524 1.426-1.308 2.402-2.617.508-.723.88-.723.214 0 .39.196.156.195.156.39 0 .723-1.856 2.813-2.949 3.281-5.351 3.281-1.445 0-2.207-1.035-.547-.762-.547-1.797 0-2.031 1.68-4.707 1.62-2.559 3.75-4.121 1.25-.899 2.187-.899zM98.102 192.158q-.645 1.133-1.27 1.914-1.23 1.524-2.441 1.524-1.055 0-1.641-.996-.371-.645-.371-1.524 0-2.168 1.367-4.785 1.524-2.91 3.672-4.473 1.406-1.015 2.715-1.015.82 0 1.367.508.469.449.469 1.015 0 .43-.332 1.192.293.41.293.722 0 .41-.547 1.348-.567.957-1.133 2.539-.605 1.68-.605 2.695 0 .82.488 1.348.137.137.8.45.489.234.489.82 0 .37-.274.605-.293.254-.683.254-1.055 0-1.817-.938-.625-.761-.625-1.914 0-.39.079-1.289zm2.441-6.426q-.234-.43-.508-.625-.273-.214-.586-.214-1.484 0-3.222 2.597-1.915 2.871-1.915 4.864 0 .488.176.742.196.254.567.254.937 0 2.187-1.993.703-1.093 1.738-3.222.684-1.387.997-1.836.156-.235.566-.567zM110.582 183.975q1.953-4.082 3.691-7.11 1.68-2.93 2.286-3.691.664-.84 1.25-.84.312 0 .566.254.234.254.234.547 0 .449-.664 1.504-2.832 4.57-5.195 9.277-2.734 5.488-2.734 8.223 0 1.113.43 1.757.077.137.702.625.118.098.118.391 0 .39-.313.723-.293.312-.664.312-.45 0-.996-.547-.781-.78-.938-1.796-.058-.43-.136-1.602-2.051 3.691-3.906 3.691-1.075 0-1.72-1.21-.429-.801-.429-1.817 0-3.047 2.227-6.133 2.207-3.047 4.746-3.047.703 0 1.445.489zm-.664 1.601q-.527-.351-.918-.351-1.64 0-3.105 2.011-1.934 2.618-1.934 5.059 0 .293.117.547.234.488.703.488.684 0 1.66-1.328 1.309-1.758 2.422-4.16.39-.82.762-1.64l.176-.372z"/><path d="M114.684 191.63v.352q0 .43.214.743.489.722 1.602.722 2.441 0 5.645-3.75.566-.644.957-.644.214 0 .39.215.117.156.117.293 0 .761-1.875 2.578-1.464 1.425-3.125 2.324-1.66.898-3.086.898-1.464 0-2.304-1.015-.567-.703-.567-1.914 0-3.301 3.106-6.465 2.52-2.578 4.394-2.578.508 0 .918.312.508.41.508 1.074 0 1.036-.957 2.54-1.973 3.124-5.937 4.316zm.43-1.523q1.366-.468 2.148-1.054 1.367-1.055 2.168-2.383.293-.469.293-.84 0-.39-.371-.39-.508 0-1.446.761-1.68 1.348-2.793 3.906zM127.496 188.877q1.64-1.719 2.89-2.695 1.895-1.465 2.54-1.465.312 0 .547.234.214.215.214.469 0 .371-.683 1.21-1.055 1.329-1.465 2.266 4.57-4.59 6.25-4.59.352 0 .606.215.273.235.273.586 0 .547-.84 1.407-3.691 3.808-3.691 6.25 0 .996.351 1.425l.508.645q.156.176.156.45 0 .312-.254.585-.293.313-.664.313-.644 0-1.191-.82-.664-.977-.664-2.305 0-1.778 1.016-3.594.351-.645 1.171-1.719-1.66 1.25-3.379 3.438-1.171 1.484-2.109 3.32-.45.879-1.055.879-.664 0-.664-.742 0-.801 1.094-3.301.625-1.426 1.543-3.008-3.34 2.578-5.02 6.992-.41.977-1.093.977-.313 0-.508-.235-.215-.234-.215-.566 0-1.152 1.29-4.16 1.347-3.184 3.046-5.723 1.172-1.777 1.817-1.777.585 0 .585.625 0 .273-.722 1.367-1.27 2.05-1.68 3.047zM145.348 189.912q-1.739 2.05-2.774 3.047-2.05 1.953-3.418 1.953-.664 0-1.054-.488-.293-.39-.293-.977 0-2.11 2.5-5.605 2.539-3.555 3.671-3.555.313 0 .547.274.215.214.215.507 0 .43-.234.762-.215.313-1.27 1.426-1.113 1.152-2.05 2.5-1.075 1.523-1.075 2.226 0 .41.39.41.782 0 2.93-2.128 1.348-1.348 2.11-2.266.156-.195 1.367-1.855 1.094-1.465 1.348-1.739.586-.683 1.094-.683.312 0 .566.273.234.254.234.586 0 .566-.78 1.895-.938 1.62-1.72 3.027-1.23 2.187-1.894 3.906 1.25-.722 2.285-1.777 1.758-1.758 2.148-2.617.371-.782.762-.782.547 0 .547.547 0 1.035-1.758 3.086-2.11 2.461-5.195 4.18-1.64 3.945-3.106 6.543-2.734 4.785-5.644 4.785-1.192 0-1.914-.918-.567-.703-.567-1.777 0-3.047 4.278-6.23 1.25-.938 3.71-2.344.997-.567 1.563-.918.352-.899 1.074-2.383.801-1.602 1.407-2.89zm-3.594 7.676q-2.07 1.055-4.238 3.008-2.188 2.011-2.188 3.75 0 .37.215.625.293.351.762.351 1.465 0 3.242-3.066.293-.508 1.601-3.379.274-.586.606-1.29z"/></g></svg>