<svg width="72.594" height="30.859" viewBox="0 0 19.207 8.165" xmlns="http://www.w3.org/2000/svg"><defs><path id="a" d="M-4.722-74.205h213.845V56.666H-4.722z"/></defs><g aria-label="Academy" transform="matrix(.26458 0 0 .26458 1.965 17.726)" style="fill:#f0f;stroke:#f0f"><path d="M5.418-54.854q-3.547.703-5.938 1.656-1.437 2.11-3.156 5.062l-.828 1.454q-.219.39-.672 1.125-.5.859-1.047.859-.297 0-.5-.234-.203-.204-.203-.454 0-.437 1.172-2.484.64-1.11 1.938-3.14.5-.782.796-1.282-.937.266-1.718.61-.375.171-.625.171-.313 0-.485-.28-.125-.173-.125-.407 0-.531.375-.75.61-.375 2.188-.86 1.172-.374 1.86-.687.327-.406 1.718-2.39.594-.86 3.375-4.063 2-2.344 4.125-4.36 1.234-1.187 1.89-1.187.407 0 .704.328.25.297.25.656 0 .438-.438 1.532-.75 1.922-1.437 4.11-.594 1.937-.797 2.968.281 0 .375-.016.453-.015.75-.015.906 0 .906.687 0 .297-.203.594-.188.281-.438.344-.093.03-.515.03-.89 0-1.328.11-.375 1.11-1.188 5.672-.422 3.031-.406 3.719 0 1.125-.672 1.125-.531 0-.828-.547-.219-.375-.219-1.016 0-2.156.766-5.812.39-1.844.578-2.828zm.437-1.688q.141-.453.72-2.422.14-.515.718-2.047.578-1.578.922-2.53-1.016.671-2.063 1.78Q2.465-57.79.95-55.276q.578-.14 2.485-.703.546-.157 2.421-.563zM14.262-55.917q1.234 0 1.234 1.297 0 1.14-.89 2.297-.688.875-1.204.875-.437 0-.437-.5 0-.266.125-.422.047-.062.375-.36.281-.265.578-.796.203-.36.203-.578 0-.25-.281-.25-.328 0-1 .515-1.063.828-2.125 2.594-1.094 1.844-1.094 2.906 0 .344.203.61.297.406.797.406.984 0 2.328-1.219 1.14-1.047 1.922-2.094.406-.578.703-.578.172 0 .313.157.125.156.125.312 0 .578-1.485 2.25-2.359 2.625-4.28 2.625-1.157 0-1.767-.828-.437-.61-.437-1.438 0-1.625 1.344-3.765 1.297-2.047 3-3.297 1-.719 1.75-.719zM21.95-48.807q-.516.906-1.016 1.53-.985 1.22-1.954 1.22-.843 0-1.312-.797-.297-.516-.297-1.219 0-1.734 1.094-3.828 1.219-2.328 2.937-3.578 1.125-.813 2.172-.813.656 0 1.094.406.375.36.375.813 0 .344-.266.953.235.328.235.578 0 .328-.438 1.078-.453.766-.906 2.032-.484 1.343-.484 2.156 0 .656.39 1.078.11.11.64.36.391.187.391.656 0 .296-.218.484-.235.203-.547.203-.844 0-1.453-.75-.5-.61-.5-1.531 0-.313.062-1.031zm1.952-5.141q-.187-.344-.406-.5-.219-.172-.469-.172-1.187 0-2.578 2.078-1.531 2.297-1.531 3.89 0 .391.14.595.157.203.454.203.75 0 1.75-1.594.562-.875 1.39-2.578.547-1.11.797-1.469.125-.187.453-.453zM31.934-55.354q1.562-3.266 2.953-5.688 1.343-2.344 1.828-2.953.531-.672 1-.672.25 0 .453.203.187.203.187.438 0 .36-.53 1.203-2.266 3.656-4.157 7.422-2.188 4.39-2.188 6.578 0 .89.344 1.406.063.11.563.5.093.078.093.313 0 .312-.25.578-.234.25-.53.25-.36 0-.798-.438-.625-.625-.75-1.437-.047-.344-.109-1.281-1.64 2.953-3.125 2.953-.86 0-1.375-.969-.344-.64-.344-1.453 0-2.438 1.781-4.906 1.766-2.438 3.797-2.438.563 0 1.157.39zm-.532 1.281q-.422-.281-.734-.281-1.313 0-2.484 1.61-1.547 2.093-1.547 4.046 0 .234.093.437.188.391.563.391.547 0 1.328-1.062 1.047-1.407 1.938-3.329.312-.656.609-1.312l.14-.297z"/><path d="M35.215-49.23v.282q0 .344.172.594.39.578 1.281.578 1.953 0 4.516-3 .453-.516.765-.516.172 0 .313.172.093.125.093.234 0 .61-1.5 2.063-1.171 1.14-2.5 1.86-1.328.718-2.468.718-1.172 0-1.844-.812-.453-.563-.453-1.532 0-2.64 2.484-5.172 2.016-2.062 3.516-2.062.406 0 .734.25.406.328.406.86 0 .827-.765 2.03-1.578 2.5-4.75 3.454zm.344-1.218q1.093-.375 1.718-.844 1.094-.844 1.735-1.906.234-.375.234-.672 0-.312-.297-.312-.406 0-1.156.609-1.344 1.078-2.234 3.125zM45.465-51.432q1.312-1.375 2.312-2.157 1.516-1.172 2.032-1.172.25 0 .437.188.172.172.172.375 0 .297-.547.969-.844 1.062-1.172 1.812 3.656-3.672 5-3.672.281 0 .485.172.218.188.218.469 0 .437-.672 1.125-2.953 3.047-2.953 5 0 .797.282 1.14l.406.516q.125.14.125.36 0 .25-.203.468-.235.25-.532.25-.515 0-.953-.656-.53-.781-.53-1.844 0-1.422.812-2.875.28-.515.937-1.375-1.328 1-2.703 2.75-.938 1.188-1.688 2.657-.359.703-.843.703-.532 0-.532-.594 0-.64.875-2.64.5-1.141 1.235-2.407-2.672 2.063-4.016 5.594-.328.781-.875.781-.25 0-.406-.187-.172-.188-.172-.454 0-.921 1.031-3.328 1.078-2.547 2.438-4.578.937-1.422 1.453-1.422.469 0 .469.5 0 .22-.578 1.094-1.016 1.64-1.344 2.438zM59.746-50.604q-1.39 1.64-2.219 2.437-1.64 1.563-2.734 1.563-.531 0-.844-.39-.234-.313-.234-.782 0-1.688 2-4.485 2.031-2.843 2.937-2.843.25 0 .438.218.172.172.172.407 0 .343-.188.61-.172.25-1.015 1.14-.891.922-1.641 2-.86 1.218-.86 1.781 0 .328.313.328.625 0 2.344-1.703 1.078-1.078 1.687-1.813.125-.156 1.094-1.484.875-1.172 1.078-1.39.469-.547.875-.547.25 0 .453.218.188.203.188.47 0 .452-.625 1.515-.75 1.297-1.375 2.422-.985 1.75-1.516 3.125 1-.579 1.828-1.422 1.407-1.407 1.72-2.094.296-.625.608-.625.438 0 .438.437 0 .829-1.406 2.47-1.688 1.968-4.157 3.343-1.312 3.156-2.484 5.234-2.187 3.828-4.516 3.828-.953 0-1.53-.734-.454-.562-.454-1.422 0-2.437 3.422-4.984 1-.75 2.969-1.875.797-.453 1.25-.735.281-.718.86-1.906.64-1.281 1.124-2.312zm-2.875 6.14q-1.656.844-3.39 2.407-1.75 1.609-1.75 3 0 .296.171.5.235.28.61.28 1.172 0 2.593-2.452.235-.407 1.282-2.703.218-.47.484-1.032z"/></g></svg>