<svg width="300" height="94.062" viewBox="0 0 79.375 24.887" xmlns="http://www.w3.org/2000/svg"><defs><path id="a" d="M125.474 256.345h514.038v169.997H125.474z"/></defs><g aria-label="Tetris" transform="matrix(.36832 0 0 .36832 -45.9 -101.386)"><path d="M172.443 284.75q0 1.36-.14 2.344-.094.937-.328 1.547-.235.562-.61.843-.328.282-.75.282h-15.187v48.89q0 .469-.328.844-.282.375-.985.61-.703.234-1.922.374-1.172.141-2.953.141t-3-.14q-1.172-.141-1.875-.376-.703-.234-1.031-.609-.281-.375-.281-.844v-48.89h-15.188q-.469 0-.797-.282-.328-.28-.562-.843-.235-.61-.375-1.547-.094-.985-.094-2.344 0-1.406.094-2.39.14-.985.375-1.548.234-.609.562-.843.328-.281.797-.281h42.75q.422 0 .75.28.375.235.61.844.234.563.328 1.547.14.985.14 2.391zM209.24 316.625q0 2.156-.984 3.188-.938 1.03-2.625 1.03h-25.453q0 2.673.61 4.876.655 2.156 2.015 3.703 1.406 1.5 3.562 2.297 2.203.797 5.25.797 3.094 0 5.438-.422 2.343-.469 4.031-.985 1.734-.562 2.86-.984 1.124-.469 1.827-.469.422 0 .704.188.28.14.468.562.188.422.235 1.219.093.75.093 1.922 0 1.031-.046 1.781-.047.703-.141 1.219-.094.515-.281.89-.188.329-.516.657-.281.328-1.64.89-1.36.563-3.47 1.125-2.109.516-4.827.891-2.72.422-5.813.422-5.578 0-9.797-1.406-4.172-1.407-6.984-4.266-2.813-2.86-4.219-7.219-1.36-4.36-1.36-10.219 0-5.578 1.454-10.03 1.453-4.5 4.219-7.594 2.765-3.141 6.703-4.782 3.984-1.64 8.953-1.64 5.25 0 8.953 1.546 3.75 1.547 6.14 4.313 2.391 2.719 3.516 6.469 1.125 3.75 1.125 8.156zm-11.437-3.375q.14-4.969-2.016-7.781-2.11-2.86-6.562-2.86-2.25 0-3.938.844-1.64.844-2.766 2.297-1.078 1.406-1.687 3.375-.563 1.922-.656 4.125zM243.037 334.625q0 2.063-.281 3.188-.235 1.078-.656 1.546-.422.422-1.266.797-.797.328-1.922.563-1.078.281-2.39.422-1.266.14-2.579.14-3.515 0-6.093-.89-2.579-.891-4.266-2.72-1.688-1.874-2.484-4.687-.797-2.812-.797-6.656v-21.422h-5.016q-.89 0-1.36-1.078-.468-1.125-.468-3.703 0-1.36.094-2.297.14-.937.375-1.453.234-.563.562-.797.375-.234.844-.234h4.969v-9.328q0-.47.234-.844.281-.375.938-.61.703-.28 1.828-.375 1.172-.14 2.86-.14 1.733 0 2.858.14 1.172.094 1.829.375.656.235.937.61t.281.844v9.328h9.094q.469 0 .797.234.375.235.61.797.234.516.327 1.453.141.938.141 2.297 0 2.578-.469 3.703-.468 1.078-1.36 1.078h-9.14v19.64q0 3.423 1.078 5.157 1.079 1.688 3.844 1.688.938 0 1.688-.141.75-.188 1.312-.375.61-.234.985-.375.421-.188.75-.188.28 0 .515.188.281.14.422.656.14.469.234 1.313.141.844.141 2.156zM278.428 300.828q0 1.688-.094 2.766t-.281 1.687q-.188.61-.516.844-.281.234-.75.234-.375 0-.844-.14-.468-.188-1.078-.375-.562-.188-1.265-.328-.703-.188-1.547-.188-.985 0-1.969.422-.984.375-2.062 1.219-1.032.844-2.204 2.25-1.125 1.406-2.437 3.469v26.062q0 .469-.281.844-.282.328-.985.562-.656.235-1.781.328-1.125.141-2.86.141-1.734 0-2.859-.14-1.125-.094-1.828-.329-.656-.234-.937-.562-.282-.375-.282-.844v-41.813q0-.468.235-.796.234-.375.844-.61.609-.234 1.546-.328.985-.14 2.438-.14 1.5 0 2.484.14.985.094 1.5.328.563.235.797.61.235.328.235.796v5.204q1.64-2.344 3.093-3.844 1.453-1.547 2.766-2.438 1.312-.89 2.625-1.218 1.312-.375 2.625-.375.61 0 1.312.093.704.047 1.454.235.75.14 1.312.375.563.187.797.422.281.234.375.515.14.281.234.797.094.469.14 1.453.048.985.048 2.672zM297.506 338.75q0 .469-.281.844-.282.328-.985.562-.656.235-1.781.328-1.125.141-2.86.141-1.734 0-2.859-.14-1.125-.094-1.828-.329-.656-.234-.937-.562-.282-.375-.282-.844v-41.719q0-.469.282-.797.28-.375.937-.609.703-.281 1.828-.422 1.125-.14 2.86-.14 1.734 0 2.859.14t1.781.422q.703.234.985.61.28.327.28.796zm.89-55.969q0 3.563-1.453 4.922-1.453 1.36-5.39 1.36-3.985 0-5.39-1.313-1.36-1.313-1.36-4.734 0-3.563 1.406-4.922 1.453-1.406 5.437-1.406 3.938 0 5.344 1.359 1.406 1.312 1.406 4.734zM338.709 326.938q0 3.562-1.36 6.28-1.312 2.72-3.75 4.548-2.437 1.828-5.765 2.718-3.328.938-7.219.938-2.344 0-4.5-.375-2.11-.328-3.797-.844-1.687-.562-2.812-1.125-1.125-.562-1.64-1.031-.516-.516-.798-1.547-.28-1.078-.28-3.14 0-1.36.093-2.157.094-.844.281-1.312.188-.516.469-.657.281-.187.703-.187.516 0 1.5.61 1.031.562 2.531 1.265 1.5.703 3.469 1.312 2.016.61 4.547.61 1.594 0 2.812-.328 1.266-.329 2.157-.938.937-.61 1.406-1.547.469-.937.469-2.156 0-1.406-.891-2.39-.844-1.032-2.297-1.782-1.406-.75-3.234-1.406-1.782-.656-3.703-1.453-1.875-.797-3.704-1.828-1.78-1.032-3.234-2.532-1.406-1.5-2.297-3.609-.844-2.11-.844-5.063 0-3 1.172-5.484 1.172-2.531 3.375-4.312 2.203-1.782 5.344-2.766 3.188-.984 7.125-.984 1.969 0 3.797.28 1.875.282 3.375.704t2.531.938q1.031.468 1.453.843.47.328.657.703.187.329.28.844.095.469.141 1.219.094.703.094 1.781 0 1.266-.094 2.063-.046.796-.234 1.265-.14.469-.422.656-.281.141-.656.141-.422 0-1.313-.469-.89-.515-2.25-1.078-1.312-.562-3.093-1.031-1.735-.516-3.985-.516-1.593 0-2.765.329-1.172.328-1.922.937-.75.61-1.125 1.453-.375.797-.375 1.735 0 1.453.89 2.437.891.984 2.344 1.734 1.453.75 3.281 1.407 1.875.656 3.75 1.453 1.922.75 3.75 1.781 1.875 1.031 3.329 2.531 1.453 1.5 2.343 3.61.89 2.062.89 4.921z"/></g></svg>