<?xml version="1.0" standalone="no"?>
<!DOCTYPE svg PUBLIC "-//W3C//DTD SVG 20010904//EN"
 "http://www.w3.org/TR/2001/REC-SVG-20010904/DTD/svg10.dtd">
<svg version="1.0" xmlns="http://www.w3.org/2000/svg"
 width="360.000000pt" height="360.000000pt" viewBox="0 0 360.000000 360.000000"
 preserveAspectRatio="xMidYMid meet">
<metadata>
Created by potrace 1.14, written by Peter Selinger 2001-2017
</metadata>
<g transform="translate(0.000000,360.000000) scale(0.100000,-0.100000)"
fill="#000000" stroke="none">
<path d="M1938 3489 c-21 -11 -38 -16 -38 -12 0 5 -4 2 -9 -6 -5 -8 -18 -16
-29 -18 -11 -1 -36 -12 -56 -24 -20 -11 -36 -18 -36 -13 0 4 -8 0 -18 -9 -10
-10 -22 -14 -25 -10 -4 3 -7 0 -7 -7 0 -7 -3 -10 -7 -7 -3 4 -15 -1 -25 -10
-21 -19 -69 -24 -80 -9 -3 5 -14 10 -25 11 -10 1 -25 5 -33 8 -8 4 -28 8 -45
11 -16 2 -30 5 -30 6 0 2 -37 10 -70 14 -16 3 -30 5 -30 6 0 2 -17 5 -65 14
-19 3 -53 10 -75 16 -22 5 -41 9 -42 10 -2 0 -4 0 -5 1 -39 12 -98 16 -104 8
-3 -5 -10 -7 -15 -3 -5 3 -16 0 -24 -6 -8 -7 -15 -9 -15 -5 0 4 -7 2 -15 -5
-8 -6 -19 -9 -25 -5 -5 3 -10 1 -10 -6 0 -7 -3 -10 -6 -6 -4 3 -21 0 -39 -8
-19 -7 -36 -11 -39 -7 -3 3 -6 0 -6 -7 0 -7 -4 -10 -9 -6 -5 3 -12 1 -16 -4
-3 -6 -12 -8 -20 -4 -8 3 -15 0 -15 -6 0 -6 -3 -10 -7 -10 -5 1 -10 0 -13 -1
-6 -2 -33 -9 -55 -13 -8 -2 -18 -6 -21 -10 -4 -4 -13 -7 -21 -7 -7 0 -33 -9
-57 -21 -32 -14 -44 -26 -43 -40 1 -10 4 -19 7 -19 3 0 7 -10 8 -22 2 -24 9
-70 12 -78 1 -3 2 -8 1 -12 0 -5 5 -8 12 -8 8 0 7 -4 -3 -10 -11 -7 -11 -10
-2 -10 7 0 10 -5 7 -10 -4 -6 -2 -17 4 -24 6 -7 12 -25 13 -40 1 -14 6 -26 11
-26 5 0 3 -8 -4 -17 -10 -11 -10 -14 -2 -9 7 4 13 2 13 -3 0 -17 2 -24 11 -49
5 -13 11 -37 14 -55 4 -17 11 -34 16 -38 9 -5 -19 -23 -30 -19 -2 1 -7 -4 -12
-12 -5 -7 -12 -13 -16 -13 -17 -1 -73 -36 -73 -46 0 -6 -4 -8 -9 -5 -5 4 -12
0 -14 -6 -4 -10 -6 -10 -6 0 -1 9 -10 7 -31 -8 -16 -12 -30 -19 -30 -15 0 3
-20 -6 -45 -19 -25 -14 -45 -22 -45 -18 0 4 -4 2 -8 -4 -4 -6 -38 -26 -77 -44
-72 -35 -107 -60 -84 -60 7 0 10 -3 6 -6 -3 -4 1 -20 9 -36 9 -17 17 -39 20
-51 2 -11 9 -24 15 -28 8 -5 8 -8 -1 -14 -8 -5 -6 -11 6 -19 13 -10 14 -15 4
-21 -9 -6 -11 -4 -5 5 5 9 4 11 -4 6 -6 -4 -9 -12 -5 -17 3 -5 10 -7 15 -4 8
6 26 -29 34 -65 2 -8 4 -17 5 -20 1 -3 2 -8 1 -12 0 -5 3 -8 9 -8 5 0 10 -5
10 -11 0 -6 -9 -8 -22 -4 -18 5 -20 4 -8 -4 8 -6 24 -11 35 -11 17 0 17 -2 5
-10 -12 -8 -9 -10 13 -10 15 0 27 -5 27 -10 0 -6 -5 -9 -12 -8 -7 2 -13 -7
-14 -19 -1 -12 2 -20 7 -18 4 3 10 -1 12 -7 4 -9 6 -10 6 -1 1 6 -3 15 -9 18
-5 3 -10 11 -10 17 0 6 10 3 22 -8 15 -12 18 -13 10 -3 -11 14 -9 17 13 17 14
0 25 -4 25 -8 0 -7 9 -9 55 -12 17 -1 22 -5 15 -12 -20 -20 -9 -29 12 -10 21
17 21 17 8 1 -12 -16 -12 -19 1 -17 45 7 51 0 20 -26 -17 -14 -29 -29 -27 -33
3 -4 -4 -8 -15 -8 -12 -1 -17 3 -13 10 4 7 -1 4 -12 -5 -10 -9 -28 -25 -39
-35 -12 -10 -37 -27 -58 -36 -20 -10 -37 -22 -37 -27 0 -6 -6 -10 -13 -10 -7
0 -25 -11 -40 -25 -15 -14 -27 -23 -27 -19 0 4 -9 -1 -20 -11 -11 -10 -20 -14
-20 -9 0 5 -4 4 -8 -2 -4 -6 -28 -25 -54 -41 -26 -17 -44 -34 -40 -38 4 -5 2
-5 -4 -2 -7 4 -25 -3 -40 -15 -50 -39 -53 -48 -32 -84 11 -19 17 -38 14 -43
-3 -5 1 -12 10 -15 8 -3 12 -10 9 -16 -3 -5 -2 -10 3 -10 6 0 12 -7 15 -14 4
-11 1 -13 -11 -10 -9 3 -6 -1 7 -9 18 -11 20 -16 10 -20 -11 -4 -10 -6 2 -6
17 -1 33 -34 29 -60 -1 -7 3 -10 9 -6 11 6 15 -7 12 -34 -2 -7 2 -10 8 -6 6 3
11 -1 11 -10 0 -10 5 -13 13 -9 7 5 6 0 -3 -11 -8 -10 -10 -16 -4 -12 7 4 17
-5 24 -23 7 -16 17 -27 23 -23 7 4 8 0 3 -12 -6 -16 -4 -16 11 -4 11 9 14 10
9 2 -4 -8 -1 -13 8 -13 9 0 16 -4 16 -9 0 -6 9 -8 20 -6 13 2 24 -4 31 -17 9
-17 13 -18 20 -7 7 11 9 11 9 1 0 -7 4 -11 9 -8 5 3 12 -1 15 -9 3 -8 11 -14
18 -13 7 2 12 -6 13 -17 0 -11 4 -26 8 -32 6 -9 3 -11 -8 -7 -9 4 -14 13 -11
21 4 9 2 11 -6 7 -6 -4 -8 -3 -4 4 4 6 -3 9 -18 8 -14 -2 -24 2 -23 8 1 6 -4
10 -11 8 -8 -1 -11 2 -6 9 5 8 3 9 -6 4 -9 -6 -11 -4 -5 6 7 12 6 12 -7 1 -14
-11 -19 -10 -33 12 -11 16 -26 25 -39 25 -20 -2 -20 -2 2 -6 12 -2 20 -9 17
-14 -4 -5 -1 -9 5 -9 6 0 8 -5 4 -12 -4 -6 -3 -8 4 -4 6 3 13 2 17 -4 4 -6 11
-8 16 -5 5 4 9 1 9 -5 0 -7 6 -10 13 -7 10 4 13 -3 12 -22 -1 -19 3 -27 16
-27 10 0 16 4 13 7 -2 4 0 10 5 13 5 4 12 -3 16 -14 4 -11 11 -17 17 -14 8 5
9 1 4 -12 -7 -18 -6 -18 10 -2 13 13 15 20 6 30 -6 8 -8 18 -4 24 8 12 44 15
37 3 -4 -6 14 -18 38 -24 4 -2 9 -4 12 -5 3 -1 11 -3 18 -4 6 -1 10 -10 9 -21
-3 -15 -1 -17 10 -8 17 14 52 13 38 -1 -14 -14 -13 -31 3 -19 15 12 48 13 41
1 -5 -7 9 -12 27 -10 4 1 5 -8 2 -18 -3 -11 -10 -20 -15 -20 -6 0 -7 8 -4 17
4 10 4 14 0 10 -4 -4 -13 1 -21 11 -12 16 -14 16 -26 0 -12 -15 -14 -15 -25 3
-7 10 -15 18 -20 18 -19 -3 -33 2 -27 10 3 5 0 13 -6 17 -8 5 -9 3 -4 -7 8
-12 6 -12 -8 0 -9 7 -17 10 -17 5 -1 -5 -11 4 -24 19 -15 19 -23 23 -23 13 0
-9 3 -16 7 -16 3 0 6 -9 7 -20 1 -11 -2 -18 -7 -15 -5 3 -11 1 -14 -4 -4 -5 1
-8 10 -7 8 1 19 8 24 15 9 16 17 3 14 -26 0 -12 2 -20 7 -18 4 3 10 -1 12 -7
4 -9 6 -10 6 -1 1 6 -3 15 -9 18 -5 3 -10 11 -10 17 0 6 10 3 22 -8 12 -10 18
-13 13 -5 -6 10 -2 11 16 6 24 -8 42 -26 34 -34 -3 -2 -11 2 -20 9 -13 11 -14
10 -9 -4 7 -19 25 -21 43 -3 11 10 13 9 8 -5 -3 -10 -2 -20 4 -23 5 -4 7 -11
4 -16 -4 -5 -2 -9 3 -9 16 0 21 27 9 40 -7 6 5 4 26 -6 25 -12 34 -21 27 -28
-5 -5 -10 -14 -10 -18 0 -4 9 1 21 13 11 11 27 18 34 15 9 -3 12 0 8 10 -4 12
-8 12 -21 2 -12 -10 -16 -10 -19 0 -3 6 -9 9 -15 6 -6 -4 -5 2 1 15 14 25 23
28 14 4 -6 -15 -4 -16 8 -6 11 9 18 8 33 -3 10 -7 23 -11 27 -8 5 3 9 0 9 -6
0 -7 -7 -9 -16 -6 -14 6 -15 4 -4 -9 11 -13 11 -16 -1 -13 -8 2 -13 -4 -13
-14 1 -10 -2 -16 -6 -13 -5 3 -17 -8 -26 -24 -10 -17 -21 -28 -26 -25 -4 3 -8
0 -8 -5 0 -15 -37 -51 -44 -44 -3 4 -6 1 -6 -6 0 -16 -68 -80 -76 -72 -4 3 -4
-2 -1 -12 4 -10 3 -16 -2 -12 -5 3 -20 -8 -34 -24 -14 -17 -28 -27 -31 -24 -3
4 -6 -1 -6 -10 0 -10 -4 -17 -8 -17 -4 0 -8 -11 -8 -25 0 -14 4 -25 8 -25 4 0
8 -7 8 -15 0 -8 5 -15 11 -15 5 0 8 -3 6 -7 -6 -11 28 -74 37 -68 3 3 2 0 -3
-6 -7 -8 -4 -17 9 -28 10 -9 22 -27 26 -41 6 -23 6 -24 -12 -10 -17 12 -17 12
-6 0 7 -8 17 -16 23 -16 5 -1 14 -2 19 -3 6 0 10 -10 10 -20 0 -11 5 -23 10
-26 6 -3 10 -15 10 -26 0 -10 5 -19 10 -19 6 0 10 -5 10 -11 0 -6 10 -19 23
-29 20 -17 21 -21 8 -42 -13 -21 -13 -22 2 -10 10 9 17 10 22 2 3 -6 10 -8 15
-5 4 3 10 -2 13 -10 5 -11 1 -12 -18 -5 -19 7 -23 6 -18 -5 3 -8 9 -13 13 -10
14 9 40 -6 33 -19 -4 -6 0 -6 9 2 11 9 18 10 23 2 3 -5 2 -10 -4 -10 -5 0 0
-11 12 -24 16 -18 26 -22 39 -15 11 6 20 5 25 -3 12 -19 49 -47 39 -29 -6 9
-5 12 5 9 8 -3 13 -10 12 -16 -2 -7 4 -9 14 -5 10 4 14 2 9 -5 -10 -17 10 -23
24 -7 12 14 7 19 -13 16 -5 -1 -6 3 -3 8 3 5 -2 8 -12 7 -9 0 -16 5 -14 12 1
8 -6 11 -23 8 -17 -3 -23 -1 -19 6 4 6 3 8 -2 5 -6 -3 -11 3 -11 14 -2 21 12
26 22 8 4 -6 14 -8 22 -5 8 3 11 2 8 -3 -3 -5 -1 -12 5 -16 6 -4 8 -11 5 -16
-4 -5 -1 -9 4 -9 6 0 11 5 11 12 0 6 6 4 13 -7 10 -13 16 -15 21 -6 4 6 12 9
17 5 6 -4 6 -11 -2 -20 -9 -11 -8 -18 2 -31 12 -15 12 -16 -3 -10 -21 8 -48
-1 -48 -16 0 -6 3 -7 7 -4 3 4 13 1 22 -6 14 -11 14 -10 2 5 -8 11 -9 18 -3
18 6 0 16 -8 21 -17 10 -17 10 -17 11 0 0 10 4 16 10 12 5 -3 7 -13 4 -23 -4
-10 -2 -13 3 -7 17 22 55 3 46 -23 -4 -14 -2 -13 11 3 17 20 17 20 10 -4 -4
-14 -2 -21 4 -17 5 3 12 15 15 26 3 13 1 18 -5 13 -7 -4 -8 -1 -3 7 5 9 4 11
-3 6 -8 -5 -10 -2 -6 8 5 13 8 13 20 2 12 -13 13 -27 1 -66 -2 -8 -2 -12 0 -7
8 14 32 7 47 -14 11 -16 18 -19 32 -11 13 7 25 5 43 -7 19 -12 23 -12 16 -2
-6 11 -4 13 8 8 9 -3 16 -3 16 1 -3 19 2 33 11 27 5 -3 6 -13 3 -23 -3 -9 -3
-14 1 -10 4 3 8 12 10 20 1 7 5 19 9 26 5 6 5 17 1 24 -5 8 -2 9 9 5 9 -3 19
-1 23 6 4 7 4 9 -1 5 -4 -4 -14 0 -22 10 -8 9 -11 11 -7 3 5 -10 3 -12 -6 -6
-8 5 -11 4 -7 -2 3 -5 0 -10 -6 -10 -7 0 -13 11 -13 23 0 12 3 21 7 18 4 -2
10 0 14 6 3 5 1 10 -5 10 -6 0 -8 5 -4 11 5 8 9 8 14 -1 5 -8 9 -7 13 4 4 9 1
16 -6 16 -7 0 -4 5 6 11 9 6 14 15 11 21 -5 7 -2 8 6 3 10 -6 12 -4 7 8 -4 10
3 23 18 35 13 11 21 23 17 27 -4 5 0 6 9 2 17 -6 39 9 39 27 0 6 -5 5 -12 -2
-7 -7 -16 -12 -22 -12 -5 0 2 9 15 21 13 11 23 27 21 35 -4 17 10 18 26 2 9
-9 12 -9 12 -1 0 7 -5 15 -11 18 -7 5 -3 15 10 29 12 12 19 25 16 28 -3 2 5
13 17 24 12 10 18 13 14 7 -4 -7 -3 -13 2 -13 16 0 22 13 11 26 -9 10 -7 15 5
20 9 3 14 10 11 14 -3 5 -1 11 5 15 6 4 7 12 3 18 -4 8 -1 7 9 -1 11 -9 18
-10 23 -2 3 5 1 10 -4 10 -6 0 -11 5 -11 11 0 8 4 8 13 2 6 -6 20 -9 29 -8 10
2 21 -1 24 -7 4 -5 -3 -8 -14 -6 -24 3 -26 0 -17 -24 4 -10 14 -18 23 -18 13
0 12 3 -4 15 -15 11 -16 14 -4 15 9 0 21 5 28 12 14 14 56 22 47 9 -3 -5 -1
-12 4 -15 5 -4 8 2 7 11 -2 10 -11 18 -21 18 -32 0 -27 21 6 23 22 2 28 -1 23
-10 -6 -9 -3 -9 9 1 15 11 18 10 27 -13 5 -14 12 -26 14 -26 3 0 3 7 -1 16 -5
14 -3 15 15 5 12 -7 22 -15 22 -19 0 -4 9 -13 21 -20 12 -8 18 -9 14 -3 -3 6
-1 11 4 11 6 0 11 -4 11 -9 0 -5 14 -14 30 -21 17 -7 30 -20 31 -29 0 -10 2
-12 6 -3 2 6 10 9 15 6 7 -4 8 -2 4 4 -4 7 -3 12 3 12 5 0 13 -9 16 -20 3 -11
11 -20 17 -20 6 0 8 3 5 6 -3 4 -2 16 4 27 7 13 7 17 1 13 -6 -3 -13 -2 -17 4
-4 6 -11 8 -16 4 -6 -3 -25 10 -44 30 -26 28 -34 32 -39 20 -4 -10 -2 -13 7
-8 9 5 9 4 1 -5 -14 -16 -55 2 -51 22 1 7 -4 11 -11 9 -8 -1 -11 2 -6 9 5 8 3
9 -6 4 -9 -6 -11 -4 -5 5 5 9 4 11 -4 6 -6 -4 -9 -12 -6 -17 4 -5 1 -9 -4 -9
-10 0 -15 14 -12 33 0 4 -4 7 -10 7 -6 0 -8 -7 -5 -16 3 -9 2 -12 -5 -9 -6 4
-8 14 -5 24 5 13 4 13 -8 -2 -12 -16 -14 -16 -20 -1 -4 11 -12 14 -24 9 -9 -4
-22 -8 -29 -8 -7 0 -10 -4 -7 -8 2 -4 -4 -6 -15 -4 -13 2 -18 -1 -15 -10 3 -7
1 -16 -5 -20 -6 -3 -11 -1 -11 5 0 6 -4 9 -9 5 -5 -3 -13 -1 -16 5 -4 6 -1 9
6 8 7 -2 13 3 14 10 0 7 7 17 15 22 8 5 11 10 6 10 -5 0 -3 6 3 13 6 8 8 17 4
20 -3 4 -1 7 6 7 7 0 10 4 6 9 -9 16 15 24 31 11 11 -10 12 -16 3 -26 -14 -17
2 -18 20 -1 10 10 12 9 9 -3 -2 -8 2 -14 7 -15 6 0 16 -4 23 -8 6 -5 17 -5 22
-2 6 4 9 1 8 -6 -2 -7 2 -13 7 -14 6 0 16 -4 23 -8 6 -5 12 -4 12 2 0 5 12 -1
26 -14 14 -13 32 -21 40 -18 9 3 14 -2 14 -13 0 -16 2 -17 10 -4 8 13 10 12
10 -4 0 -11 3 -17 6 -13 4 3 19 0 34 -8 15 -8 31 -11 35 -7 5 4 5 2 1 -5 -3
-6 -2 -14 3 -17 5 -4 8 -18 5 -31 -2 -14 0 -25 5 -25 6 0 8 -8 5 -17 -5 -15
-4 -15 4 -3 6 8 8 18 6 22 -3 4 0 8 6 8 8 0 10 -10 6 -28 -6 -26 -6 -27 7 -4
7 12 16 20 20 16 4 -4 1 -14 -6 -22 -8 -10 -8 -13 -1 -9 7 4 15 0 18 -9 4 -9
11 -12 18 -7 19 11 37 12 44 2 3 -5 2 -9 -3 -10 -23 -2 -46 -8 -51 -14 -8 -8
44 1 60 11 8 5 9 2 5 -10 -4 -10 -3 -15 3 -11 6 3 10 1 10 -4 0 -6 5 -11 11
-11 8 0 7 5 -1 15 -21 25 -6 26 23 1 15 -13 25 -25 22 -27 -2 -3 4 -5 15 -5
10 0 17 4 14 8 -2 4 5 6 16 5 22 -1 28 -17 8 -17 -7 0 -5 -5 5 -11 13 -8 22
-7 33 1 11 10 17 10 28 0 14 -11 11 -44 -3 -35 -4 2 -8 -3 -8 -12 0 -11 7 -8
22 11 14 18 25 24 29 17 4 -6 3 -11 -2 -11 -5 0 -9 -7 -9 -15 0 -8 4 -15 9
-15 4 0 8 7 8 15 0 8 5 15 11 15 5 0 8 -4 5 -9 -3 -5 1 -14 9 -21 10 -9 15 -9
15 -1 0 6 -5 11 -12 11 -6 0 -8 3 -4 7 4 5 14 -1 22 -11 8 -11 14 -14 14 -7 0
7 5 9 10 6 8 -5 7 -12 -2 -23 -11 -13 -11 -14 1 -7 11 6 13 4 9 -7 -4 -9 0
-15 8 -15 13 0 18 11 15 29 -1 10 13 10 22 1 4 -3 2 -12 -3 -19 -12 -14 -23
-61 -12 -50 7 7 8 12 11 38 0 6 4 8 8 5 3 -4 13 -1 21 6 13 10 14 8 8 -11 -8
-25 11 -31 32 -10 16 16 16 -4 0 -21 -10 -11 -10 -13 0 -7 16 9 16 -6 0 -24
-7 -8 -3 -6 9 4 21 17 22 17 42 -3 19 -19 26 -15 22 11 -1 10 13 10 22 1 4 -3
2 -12 -4 -19 -12 -15 2 -26 43 -30 23 -3 29 0 24 11 -9 25 2 17 18 -12 8 -16
15 -22 16 -15 0 7 5 10 10 7 7 -4 7 -13 0 -25 -8 -16 -8 -18 5 -14 8 3 12 11
9 16 -4 6 -1 8 7 6 8 -3 13 -11 11 -17 -1 -7 2 -10 7 -6 10 6 37 -34 33 -48
-1 -5 2 -6 8 -2 7 4 3 17 -10 34 -10 16 -17 31 -13 35 4 3 15 -6 25 -21 10
-16 18 -22 18 -15 0 7 4 11 9 7 13 -7 62 16 55 26 -3 5 0 10 5 10 6 1 15 2 20
3 5 0 13 5 18 10 4 5 3 6 -4 2 -7 -4 -12 0 -11 11 0 10 -3 27 -7 38 -7 16 -6
18 6 7 7 -6 17 -12 23 -12 5 0 1 6 -9 14 -19 14 -19 15 12 54 31 38 34 56 9
46 -7 -3 -20 3 -28 13 -16 17 -15 18 9 20 20 1 23 -1 12 -9 -12 -8 -12 -9 1
-5 8 2 24 -3 35 -12 13 -10 12 -6 -5 13 -18 22 -21 28 -8 23 10 -3 20 -1 24 6
4 7 4 9 -1 5 -4 -4 -13 0 -20 9 -9 13 -14 13 -20 3 -6 -9 -4 -11 5 -5 9 5 11
4 6 -3 -4 -7 -12 -12 -17 -12 -13 0 -2 54 11 58 7 3 6 10 -2 20 -12 15 -11 16
5 3 12 -10 15 -17 8 -24 -10 -10 13 -36 33 -37 6 0 1 6 -9 14 -18 13 -18 14 3
36 12 13 20 26 17 29 -3 2 -12 -4 -20 -15 -8 -10 -15 -14 -15 -9 -1 6 -3 22
-5 38 -2 15 0 25 5 22 5 -3 11 -1 14 4 4 5 2 12 -4 16 -6 4 -4 15 6 31 9 13
13 24 9 24 -4 0 -3 6 2 13 6 6 9 20 8 30 -3 18 1 17 49 -17 18 -12 26 -14 21
-5 -14 21 -15 39 -2 39 6 0 2 7 -9 15 -19 14 -19 14 1 15 19 1 19 1 2 11 -9 6
-15 14 -12 20 4 5 -1 9 -9 9 -9 0 -16 4 -16 10 0 5 8 6 18 3 14 -6 15 -4 5 9
-13 15 -8 28 11 28 6 0 4 -5 -4 -11 -13 -9 -13 -10 2 -5 14 4 16 0 13 -25 -2
-16 1 -29 6 -29 6 0 9 6 8 12 -4 34 2 59 13 52 6 -4 8 -3 4 4 -3 6 0 17 9 25
13 13 13 16 -1 21 -9 3 -19 4 -23 2 -4 -3 -12 4 -19 14 -9 16 -9 18 2 14 10
-4 13 5 12 34 -1 27 2 38 10 35 6 -2 11 4 11 14 0 34 3 43 14 43 8 0 7 -6 -2
-17 -12 -16 -12 -17 2 -6 9 7 19 10 22 6 4 -3 7 -1 7 5 0 6 -10 14 -21 17 -15
5 -18 9 -9 15 9 5 9 9 1 14 -8 5 -7 12 3 22 19 19 21 18 23 -8 2 -18 0 -19 -7
-8 -7 11 -9 10 -7 -8 2 -27 8 -28 25 -2 7 11 8 20 3 20 -8 0 -8 10 -1 40 0 3
8 -6 16 -20 8 -14 13 -18 10 -9 -2 9 1 22 7 28 9 9 8 11 -5 6 -10 -4 -18 -3
-18 3 0 6 8 12 18 14 13 3 12 5 -6 10 -13 4 -21 4 -18 1 8 -9 -13 -43 -27 -43
-8 0 -6 4 3 10 12 8 13 12 2 19 -11 6 -10 10 4 15 9 3 14 9 11 12 -3 3 3 21
13 39 13 24 15 36 7 44 -8 8 -8 11 2 11 7 0 11 6 8 14 -3 8 1 20 8 26 8 7 12
17 9 22 -4 6 4 5 16 -2 12 -6 24 -9 28 -6 3 3 0 6 -6 6 -7 0 -11 3 -11 8 5 28
-1 34 -18 21 -16 -12 -16 -11 0 8 13 15 15 23 7 28 -8 5 -5 12 9 22 12 8 21
19 21 25 0 6 -7 5 -17 -3 -15 -11 -14 -10 1 9 14 17 16 22 5 22 -11 0 -11 2 1
10 8 5 16 14 16 20 1 5 3 12 4 15 1 3 4 10 5 15 1 6 4 13 5 18 1 4 2 11 1 16
-1 4 3 14 9 21 6 7 10 17 9 21 -1 5 0 12 1 17 1 4 3 10 4 15 1 4 10 25 21 47
10 22 17 48 16 58 -1 9 2 17 8 17 5 0 8 10 6 22 -3 12 0 27 6 35 7 7 8 13 4
13 -4 0 -2 7 5 15 7 8 9 15 4 15 -5 0 -2 6 6 13 17 13 19 26 7 43 -4 7 0 17 8
24 8 7 13 16 10 20 -3 5 -1 11 4 15 6 3 8 12 4 20 -3 8 -1 15 4 15 5 0 9 -11
9 -24 0 -14 -4 -22 -10 -19 -6 4 -7 2 -3 -2 10 -12 38 -15 31 -4 -3 5 0 9 7 9
7 0 5 6 -6 13 -12 10 -14 16 -7 21 7 4 12 2 12 -3 0 -6 8 -11 18 -11 16 1 16
1 0 11 -9 5 -15 16 -12 24 4 8 10 12 15 9 5 -3 9 0 9 5 0 6 -3 11 -7 11 -12 0
-35 -16 -34 -24 1 -3 -1 -6 -4 -6 -5 0 -6 5 -4 15 1 3 3 14 4 25 1 11 4 22 5
25 1 3 3 8 5 13 1 4 5 15 10 25 4 10 8 34 9 53 0 19 3 34 6 34 3 0 6 9 7 19 1
15 -10 24 -42 36 -24 10 -49 14 -56 10 -8 -5 -10 -4 -5 3 4 8 -1 12 -13 13
-23 2 -40 5 -43 9 -2 1 -12 4 -23 6 -11 1 -44 9 -72 17 -29 9 -53 12 -53 9 0
-4 -4 -2 -8 5 -4 6 -19 13 -34 15 -15 2 -30 7 -34 10 -3 4 -12 4 -20 1 -8 -3
-14 1 -14 8 0 12 -2 12 -9 0 -9 -14 -51 -7 -51 9 0 4 -22 14 -50 21 -30 8 -46
17 -43 23 4 6 -2 4 -12 -4 -17 -13 -18 -13 -13 1 5 12 1 15 -18 11 -18 -3 -24
0 -24 14 0 15 -2 16 -9 5 -7 -11 -11 -10 -20 7 -15 29 -14 37 4 22 12 -10 18
-10 31 1 15 12 16 11 10 -11 -5 -17 -4 -21 2 -11 5 7 22 13 37 14 23 0 25 1
11 9 -9 5 -20 7 -25 3 -5 -3 -12 -1 -16 5 -3 5 -3 10 2 11 45 4 67 22 58 46
-2 7 0 15 5 18 6 4 10 1 10 -6 0 -7 6 -4 14 6 8 11 12 24 9 28 -3 5 5 6 18 3
20 -6 21 -5 7 4 -9 6 -15 17 -12 25 4 8 10 13 15 10 4 -3 12 2 18 12 7 13 4
24 -9 40 -15 19 -19 20 -24 7 -3 -8 -2 -12 4 -9 6 3 10 4 10 1 0 -3 -12 -13
-27 -21 -16 -9 -20 -14 -10 -11 15 5 16 3 6 -15 -8 -15 -8 -19 0 -15 7 5 9 1
5 -8 -3 -9 -10 -14 -14 -11 -11 7 -31 -20 -22 -30 4 -5 2 -5 -5 -1 -8 4 -10
-1 -7 -18 2 -14 0 -28 -6 -31 -5 -3 -10 -2 -10 3 0 5 -6 9 -14 9 -8 0 -12 -6
-9 -14 3 -7 -1 -13 -8 -13 -7 0 -9 3 -6 6 3 4 2 16 -4 27 -8 14 -8 18 0 13 6
-4 11 -2 11 3 0 6 4 11 10 11 5 0 6 -8 3 -17 -6 -16 -5 -16 10 -4 13 10 15 17
6 27 -9 11 -7 20 5 39 9 14 21 25 27 25 6 0 8 4 4 10 -3 5 4 19 16 31 17 17
19 23 8 31 -11 7 -9 8 6 6 12 -2 20 3 20 11 0 17 55 24 55 7 0 -6 4 -4 9 4 13
20 2 34 -15 19 -11 -9 -14 -9 -14 0 0 7 -4 10 -9 7 -20 -13 -3 29 18 42 19 13
21 13 15 -2 -3 -9 -10 -14 -14 -11 -5 3 -11 1 -15 -5 -3 -5 1 -10 9 -10 17 0
39 34 29 44 -10 9 6 7 30 -5 20 -9 20 -9 5 4 -10 8 -14 18 -10 22 4 5 -5 1
-20 -8 -16 -10 -29 -13 -33 -7 -3 6 -1 10 5 10 6 0 8 4 5 10 -3 6 1 7 10 4 11
-5 14 -2 9 10 -3 9 -11 13 -16 10 -7 -4 -7 0 0 12 5 11 8 27 7 36 -2 10 1 21
6 24 6 4 6 10 0 18 -7 8 -4 12 12 13 17 2 19 0 7 -7 -8 -5 -10 -10 -5 -10 6 0
16 4 23 8 9 6 5 12 -14 21 -25 11 -25 13 -11 35 12 17 13 26 4 35 -8 8 -8 11
2 11 7 0 10 4 6 9 -3 5 -1 12 5 16 6 4 7 12 3 18 -4 8 -1 7 9 -1 11 -9 18 -10
23 -2 3 6 10 8 15 5 5 -3 11 -1 14 4 3 4 -2 8 -12 8 -39 0 -49 4 -49 17 0 12
5 13 20 5 10 -6 21 -8 25 -5 3 3 0 6 -6 6 -6 0 -9 9 -7 20 2 12 0 18 -6 15 -5
-4 -6 -11 -3 -17 4 -6 2 -8 -3 -5 -10 6 -6 57 5 57 2 0 11 -8 19 -17 13 -16
13 -16 3 5 -6 12 -15 22 -20 22 -6 0 -10 5 -10 11 0 5 3 8 8 6 9 -6 9 69 -1
79 -4 4 -7 12 -7 18 0 6 5 4 10 -4 5 -8 10 -10 10 -4 0 16 -25 35 -52 39 -13
1 -41 6 -63 10 -22 5 -47 9 -55 10 -8 1 -31 5 -50 9 -19 3 -46 8 -60 10 -14 3
-25 5 -25 6 0 3 -42 10 -77 12 -21 2 -38 7 -38 11 0 5 -8 7 -17 6 -10 -1 -20
0 -23 1 -3 1 -16 3 -30 5 -14 2 -38 6 -53 9 -16 3 -38 1 -50 -3 -15 -6 -27 -3
-41 11 -11 10 -27 18 -36 17 -8 -1 -18 0 -22 1 -18 6 -26 7 -78 15 -30 5 -58
8 -62 7 -5 -1 -8 1 -8 6 0 4 -12 8 -27 9 -35 3 -88 10 -88 13 0 4 -99 21 -155
26 -32 2 -56 -3 -82 -17z m1076 -893 c-3 -7 -11 -13 -19 -13 -10 0 -11 5 -4
19 11 20 31 15 23 -6z m-477 -51 c12 1 20 -2 17 -7 -5 -8 9 -12 39 -9 9 1 17
-3 17 -9 0 -6 5 -8 13 -4 9 6 8 3 -1 -9 -12 -14 -11 -16 7 -14 15 1 20 6 16
17 -5 11 -3 12 6 3 6 -6 18 -9 25 -6 13 5 19 -8 15 -30 -1 -5 4 -7 11 -4 7 2
12 13 11 23 -1 10 0 13 3 6 3 -6 10 -10 15 -7 5 4 6 -2 2 -12 -6 -16 -5 -17
12 -3 11 9 16 10 11 3 -4 -7 -2 -13 3 -13 6 0 11 5 11 10 0 6 10 2 22 -10 27
-25 45 -27 27 -2 -11 14 -11 15 0 5 7 -6 19 -9 26 -7 18 7 26 -23 10 -36 -8
-7 -20 -8 -27 -4 -19 12 -38 14 -38 4 0 -5 4 -11 9 -14 9 -6 22 -46 15 -46 -3
0 -9 11 -14 25 -11 29 -22 31 -44 9 -9 -8 -16 -13 -16 -11 0 3 -2 12 -5 19 -4
9 2 14 16 15 12 1 27 7 33 14 8 9 7 10 -7 6 -10 -4 -16 -3 -13 2 3 5 -1 11 -9
15 -8 3 -17 1 -20 -4 -4 -6 -1 -10 4 -10 6 0 11 -4 11 -8 0 -5 -7 -9 -15 -9
-8 0 -11 5 -8 10 4 6 1 7 -8 2 -12 -8 -12 -6 0 8 9 11 10 17 2 17 -6 0 -11 -4
-11 -8 0 -5 -7 -9 -15 -9 -8 0 -12 4 -9 9 3 5 2 8 -3 7 -20 -4 -24 2 -12 18
13 15 12 15 -11 3 -32 -18 -50 -21 -50 -8 0 6 -7 8 -15 4 -13 -5 -14 -2 -4 15
8 16 8 20 -1 17 -6 -2 -12 -8 -12 -13 0 -6 -4 -15 -9 -21 -6 -8 -2 -11 13 -10
14 0 22 -4 21 -11 -2 -7 2 -13 7 -13 6 0 10 -7 10 -15 0 -8 -7 -15 -15 -15
-14 0 -20 12 -16 33 1 5 -8 6 -19 2 -20 -6 -23 0 -23 58 0 17 -9 22 -20 11 -3
-4 -1 -16 4 -27 12 -21 -6 -42 -26 -29 -5 3 -16 7 -23 8 -18 3 -29 14 -13 14
7 0 9 5 6 10 -5 8 -12 7 -23 -2 -15 -11 -15 -11 -5 3 7 9 10 19 6 22 -3 4 -1
7 5 7 7 0 12 -5 12 -11 0 -5 5 -7 10 -4 6 4 7 11 4 17 -5 7 -2 8 6 3 10 -6 12
-4 6 10 -5 13 -3 15 6 8 7 -6 23 -9 35 -8z m427 -26 c-3 -5 -10 -7 -15 -3 -5
3 -7 10 -3 15 3 5 10 7 15 3 5 -3 7 -10 3 -15z m-294 -64 c6 -4 7 -12 3 -18
-4 -8 -1 -7 9 1 14 11 18 10 28 -7 9 -18 8 -21 -12 -18 -25 2 -48 18 -42 29 2
4 -1 10 -7 14 -7 4 -9 3 -5 -4 3 -6 2 -13 -4 -17 -5 -3 -10 -4 -10 -1 0 2 -3
11 -6 20 -4 11 0 14 15 11 12 -2 26 -7 31 -10z m120 -55 c0 -5 -4 -10 -10 -10
-5 0 -10 5 -10 10 0 6 5 10 10 10 6 0 10 -4 10 -10z m-760 -401 c0 -5 5 -7 12
-3 7 4 8 3 4 -5 -4 -6 -12 -9 -17 -6 -17 11 -9 -15 10 -32 11 -9 17 -23 14
-31 -5 -11 -9 -9 -20 9 -8 13 -12 16 -9 7 3 -11 0 -17 -7 -15 -7 1 -11 -4 -9
-11 1 -8 -2 -11 -9 -6 -8 5 -10 3 -4 -7 6 -11 5 -11 -5 -2 -7 6 -19 9 -27 6
-11 -4 -10 -8 4 -20 16 -13 16 -13 -4 -3 -16 7 -23 7 -23 0 0 -5 8 -10 18 -10
14 -1 13 -3 -5 -13 -12 -7 -22 -15 -22 -19 -1 -11 -41 -50 -41 -40 0 4 6 14
12 20 10 10 8 12 -9 9 -25 -4 -43 -17 -24 -17 7 0 9 -4 6 -10 -3 -5 -1 -10 5
-10 6 0 8 -5 4 -11 -4 -8 -12 -3 -20 12 -7 13 -13 18 -14 12 0 -18 -17 -16
-17 1 0 8 3 14 6 13 3 -1 7 3 9 8 7 22 35 43 50 38 10 -4 13 -2 8 5 -8 14 30
67 47 67 7 0 12 5 12 12 0 20 13 25 34 13 26 -13 29 4 4 19 -17 10 -17 10 0
11 10 0 15 5 12 10 -3 6 -1 10 4 10 6 0 11 -5 11 -11z m60 -29 c0 -5 9 -7 20
-5 11 2 20 -1 20 -7 0 -5 6 -8 14 -5 8 3 20 -1 27 -9 10 -12 14 -12 20 -2 7
10 9 10 9 1 0 -7 7 -10 18 -7 14 5 14 4 2 -4 -8 -6 -18 -8 -23 -5 -4 3 -7 -2
-5 -10 2 -9 -48 -84 -111 -167 -63 -83 -114 -158 -114 -165 0 -21 -30 -28 -42
-12 -6 8 -33 25 -60 37 -28 12 -62 28 -77 36 -16 9 -28 12 -28 8 0 -3 -6 -2
-13 4 -7 6 -24 13 -37 16 -42 8 -60 18 -60 33 0 13 3 13 16 2 13 -10 17 -10
24 1 5 8 4 22 -1 32 -17 31 2 44 23 17 16 -19 19 -20 14 -5 -6 16 -4 17 9 6 8
-7 15 -9 15 -4 0 4 5 3 12 -4 15 -15 32 -16 22 -1 -5 8 -1 8 14 0 12 -6 24
-16 28 -23 5 -7 2 -8 -7 -3 -8 5 -7 0 4 -12 9 -11 14 -23 10 -26 -9 -9 -23 -9
-22 1 1 4 1 14 0 22 -1 13 -2 13 -11 0 -8 -12 -10 -12 -10 -1 0 19 -13 5 -17
-18 -1 -11 5 -22 14 -25 13 -5 14 -4 3 9 -17 20 -5 19 27 -2 15 -10 24 -12 19
-5 -4 7 -1 15 9 18 14 6 14 8 -2 21 -17 13 -17 14 3 8 13 -3 26 1 34 10 7 8
16 13 20 10 5 -3 12 0 16 6 4 8 3 9 -4 5 -7 -4 -12 -3 -12 2 0 12 25 34 31 27
3 -2 5 4 6 14 1 17 -1 16 -21 -4 -13 -13 -26 -30 -29 -39 -8 -21 -37 -9 -30
12 4 14 3 15 -5 2 -6 -8 -8 -18 -6 -22 3 -4 0 -8 -6 -8 -7 0 -9 7 -6 16 3 8 2
13 -3 10 -4 -3 -16 0 -25 7 -17 12 -17 14 1 28 16 13 17 13 4 -3 -12 -16 -11
-18 18 -14 21 2 34 -2 41 -13 5 -9 10 -11 10 -6 0 21 52 66 68 60 15 -5 32 10
32 29 0 6 -7 1 -15 -10 -13 -17 -14 -17 -15 -1 0 9 3 17 8 17 4 0 13 4 21 9
13 8 13 12 0 28 -13 16 -12 17 2 5 13 -10 18 -10 28 1 6 8 8 17 4 21 -4 4 0 4
10 0 9 -3 14 -11 10 -18 -4 -6 1 -5 11 3 13 11 20 11 28 3 7 -7 17 -12 22 -12
6 0 1 7 -11 15 -15 11 -20 23 -17 46 4 29 2 30 -14 18 -15 -13 -16 -12 -4 3
13 16 42 15 42 -2z m-685 -90 c16 -7 17 -9 3 -9 -10 -1 -16 -9 -15 -21 1 -11
6 -18 12 -16 5 2 9 9 7 15 -1 7 2 10 8 6 5 -3 10 -1 10 4 0 6 4 11 9 11 10 0
9 -19 -2 -37 -5 -8 -3 -13 3 -13 6 0 13 6 16 14 6 15 44 18 44 3 0 -4 5 -5 12
-1 7 5 8 3 3 -6 -5 -9 -2 -10 15 -5 20 6 21 4 15 -16 -7 -21 -6 -22 8 -10 9 7
14 18 10 25 -3 6 -2 7 3 3 5 -5 10 -13 10 -18 3 -22 5 -23 14 -9 6 10 10 11
10 3 0 -7 5 -13 11 -13 5 0 7 5 3 11 -3 6 5 3 19 -6 15 -9 31 -14 38 -10 8 6
8 2 0 -13 -8 -15 -7 -23 4 -32 8 -7 12 -16 9 -22 -3 -5 -11 -5 -19 2 -10 8
-16 7 -23 -6 -8 -15 -12 -15 -46 1 -22 11 -35 23 -32 31 6 16 -14 32 -36 29
-10 -2 -20 1 -24 6 -3 5 2 9 10 9 25 0 18 14 -16 35 l-33 18 18 -21 c28 -31
10 -57 -40 -56 -22 1 -37 6 -35 13 1 6 -5 11 -13 11 -8 0 -15 4 -15 8 0 5 7 9
15 9 8 0 15 -4 15 -9 0 -5 10 -6 23 -3 16 5 18 4 8 -3 -11 -8 -8 -10 11 -9 18
2 24 6 20 16 -3 9 -1 12 6 7 18 -11 14 0 -5 15 -14 12 -16 12 -8 0 6 -10 4
-12 -5 -6 -8 5 -11 4 -7 -2 5 -8 -25 -10 -43 -3 -3 1 -8 2 -12 1 -5 0 -8 4 -8
9 0 6 -6 9 -12 8 -7 -2 -12 3 -10 10 1 6 -2 12 -8 12 -14 0 -12 -23 3 -40 10
-12 9 -12 -4 -2 -9 6 -18 9 -21 6 -3 -2 -8 2 -12 11 -4 11 -2 14 6 9 8 -5 9
-2 5 10 -4 10 -3 15 3 11 6 -3 10 -1 10 6 0 8 5 7 16 -2 15 -12 16 -11 10 9
-8 23 -3 26 29 12z m148 -123 c-2 -4 -3 -12 -3 -19 0 -9 -3 -9 -12 0 -7 7 -20
12 -30 12 -10 0 -18 4 -18 9 0 5 15 8 33 7 17 -1 31 -6 30 -9z m1192 -5 c-3
-3 -11 0 -18 7 -9 10 -8 11 6 5 10 -3 15 -9 12 -12z m-2335 -456 c0 -3 -4 -8
-10 -11 -5 -3 -10 -1 -10 4 0 6 5 11 10 11 6 0 10 -2 10 -4z m131 -63 c13 -16
12 -17 -3 -4 -10 7 -18 15 -18 17 0 8 8 3 21 -13z m112 -37 c4 -10 1 -13 -9
-9 -15 6 -19 23 -5 23 5 0 11 -7 14 -14z m2441 -394 c-5 -16 -5 -16 6 1 16 24
33 22 20 -3 -12 -23 -19 -24 -40 -9 -11 8 -12 12 -2 16 6 2 9 10 6 15 -4 7 -2
8 4 4 6 -4 9 -14 6 -24z m-29 -113 c-4 -10 -2 -19 3 -19 5 0 9 -7 9 -15 0 -21
-11 -19 -33 7 -10 12 -13 18 -6 14 9 -5 13 -3 11 5 -3 27 1 40 11 34 6 -4 8
-15 5 -26z m-1431 -51 c-9 -14 -23 2 -17 18 4 12 8 13 14 3 4 -7 5 -17 3 -21z
m161 4 c-3 -3 0 -11 6 -19 17 -20 5 -16 -14 5 -15 16 -15 19 -2 19 8 0 13 -3
10 -5z m103 -52 c14 -23 12 -24 -23 -8 -25 11 -30 19 -19 31 9 9 28 -1 42 -23z
m116 -25 c-4 -8 -1 -15 5 -15 6 0 11 7 11 15 0 8 4 15 10 15 5 0 7 -7 4 -15
-4 -10 -1 -14 7 -12 8 2 11 2 6 0 -4 -3 -5 -9 -1 -14 3 -5 11 -6 17 -2 20 13
34 11 35 -3 1 -8 3 -21 4 -29 1 -8 7 -15 15 -15 15 0 13 21 -2 32 -6 5 -6 8 1
8 6 0 17 -6 23 -13 7 -9 27 -13 53 -11 24 1 36 -1 29 -5 -17 -11 4 -25 22 -15
6 4 9 4 5 -1 -8 -9 31 -42 45 -37 4 1 7 -3 7 -8 0 -5 6 -9 13 -7 6 1 11 -4 10
-10 -4 -17 9 -17 26 0 10 10 12 9 9 -3 -2 -8 3 -14 10 -12 8 1 11 -2 6 -9 -5
-9 -2 -10 9 -6 10 4 16 2 14 -5 -1 -6 4 -13 12 -16 8 -2 11 0 8 5 -3 5 2 9 12
9 10 0 18 -7 17 -16 -1 -8 5 -14 13 -12 7 1 19 -2 25 -8 7 -5 17 -6 21 -2 5 4
5 1 1 -6 -5 -9 -3 -12 5 -11 17 3 69 -21 69 -32 0 -13 -15 -18 -30 -9 -9 5
-19 5 -27 -2 -8 -6 -16 -8 -20 -4 -3 3 -1 6 5 6 9 0 9 5 0 19 -11 18 -13 18
-26 3 -7 -9 -11 -12 -8 -6 7 15 -20 38 -34 29 -6 -3 -7 -11 -4 -17 4 -7 2 -8
-5 -4 -6 4 -9 11 -6 16 3 4 -2 13 -10 20 -8 7 -15 10 -15 6 0 -3 -18 5 -40 19
-22 14 -40 22 -40 19 0 -4 -7 -1 -15 6 -8 7 -12 16 -9 21 9 15 -13 10 -26 -6
-17 -20 -28 -19 -26 3 1 13 -7 17 -32 17 -22 0 -39 7 -48 19 -8 11 -14 16 -14
12 0 -5 -7 -3 -15 4 -8 7 -15 9 -15 5 0 -5 -8 -1 -18 8 -10 10 -21 14 -24 11
-3 -3 -9 -1 -13 5 -3 6 1 11 9 11 9 0 16 4 16 8 0 5 -7 9 -15 9 -8 0 -16 -4
-16 -9 -1 -4 -2 -12 -3 -17 -2 -17 -16 -25 -17 -10 -1 8 -1 17 0 21 1 11 -47
41 -56 35 -5 -3 -9 7 -8 23 0 23 3 27 17 19 10 -5 15 -16 12 -24z m-66 -10
c-3 -3 -9 2 -12 12 -6 14 -5 15 5 6 7 -7 10 -15 7 -18z m-1227 -149 c13 7 41
-15 33 -27 -3 -5 0 -9 5 -9 6 0 11 6 12 13 0 9 2 9 6 -1 2 -6 10 -9 15 -6 7 5
8 2 3 -6 -6 -10 -4 -12 9 -7 10 4 15 3 11 -3 -3 -6 -2 -10 3 -10 5 0 14 -12
21 -27 7 -16 10 -25 6 -21 -4 4 -16 3 -25 -2 -17 -9 -30 2 -26 21 2 11 -26 39
-35 33 -8 -5 -13 9 -10 29 1 7 -2 8 -31 11 -7 0 -13 8 -14 16 0 9 1 10 3 2 3
-7 9 -10 14 -6z m2252 -71 c6 4 -1 -5 -16 -19 -15 -14 -24 -26 -20 -26 4 0 1
-6 -7 -13 -17 -13 -22 -58 -8 -68 14 -9 -42 -62 -68 -65 -16 -1 -28 5 -35 18
-8 14 -14 17 -21 10 -8 -8 -19 -5 -38 8 -15 11 -31 16 -35 12 -5 -4 -5 -2 -2
4 4 7 -1 15 -11 19 -18 7 -28 4 -25 -6 2 -5 -16 -5 -51 0 -5 0 -3 8 5 17 10
13 10 17 -2 25 -17 11 -35 6 -32 -9 2 -6 -10 -3 -26 6 -16 9 -27 20 -25 24 3
5 9 6 14 3 5 -3 16 5 24 17 15 21 22 14 17 -14 -2 -13 17 -9 23 5 3 8 11 5 24
-10 15 -17 22 -19 32 -10 10 9 11 9 6 0 -4 -7 -2 -14 3 -14 6 -1 16 -2 22 -3
6 0 16 -9 23 -18 10 -14 15 -15 26 -5 10 10 11 9 5 -2 -5 -9 -3 -12 6 -9 8 3
23 0 34 -5 30 -17 94 -17 88 -1 -2 7 -12 10 -20 7 -11 -4 -14 -2 -11 8 3 8 11
13 18 11 7 -2 10 3 7 12 -4 9 -2 18 4 22 6 3 8 12 5 19 -3 8 2 19 10 26 8 7
13 18 10 26 -4 11 -1 11 14 3 11 -6 26 -8 33 -5z m-1967 -102 c-5 -15 -4 -15
9 1 8 11 15 14 15 7 0 -7 5 -9 12 -5 7 4 8 3 4 -5 -4 -6 -1 -14 8 -17 8 -3 14
-14 13 -24 -1 -18 -3 -18 -19 -3 -10 9 -18 12 -18 8 0 -5 -11 2 -25 15 -24 22
-25 40 -3 40 5 0 7 -8 4 -17z m129 -63 c-3 -5 -1 -11 5 -15 5 -3 10 -1 10 6 0
7 7 4 15 -7 15 -19 15 -19 9 1 -3 11 -2 16 3 10 12 -14 33 -17 33 -4 0 6 9 1
20 -12 10 -13 19 -19 20 -14 0 6 -5 16 -11 22 -6 6 -8 17 -4 23 6 9 10 9 16
-1 4 -8 14 -14 21 -14 7 0 13 -7 13 -15 0 -8 -5 -15 -11 -15 -6 0 -18 -8 -28
-17 -20 -20 -32 -23 -41 -8 -4 6 -13 7 -23 1 -13 -7 -25 -3 -45 15 -16 13 -22
24 -15 24 9 0 9 3 -2 10 -11 7 -11 10 -2 10 7 0 10 5 6 12 -4 7 -3 8 5 4 6 -4
9 -11 6 -16z"/>
<path d="M2505 2526 c-19 -14 -31 -51 -13 -40 6 4 14 1 18 -6 5 -9 9 -9 14 -1
4 6 3 11 -3 11 -10 0 -9 19 2 38 10 16 5 15 -18 -2z"/>
<path d="M2835 2449 c-10 -15 3 -25 16 -12 7 7 7 13 1 17 -6 3 -14 1 -17 -5z"/>
<path d="M1986 1946 c18 -14 18 -14 0 -13 -10 1 -21 -3 -23 -10 -5 -15 23 -11
40 6 9 9 9 14 -3 21 -24 15 -36 11 -14 -4z"/>
<path d="M1926 1903 c-14 -19 -16 -27 -6 -33 8 -5 7 -9 -5 -14 -9 -3 -20 -4
-25 -1 -4 3 -12 -1 -18 -8 -8 -9 -2 -12 24 -13 19 0 30 2 24 6 -8 5 -6 9 5 14
9 3 13 11 10 16 -4 6 -1 17 5 25 7 8 10 19 8 24 -1 5 -11 -2 -22 -16z"/>
<path d="M2080 1950 c13 -8 13 -11 1 -19 -11 -7 -8 -11 10 -17 13 -4 27 -7 31
-6 3 1 9 -6 12 -14 4 -12 2 -15 -9 -11 -8 4 -16 3 -19 -1 -3 -4 4 -9 15 -9 11
-1 23 5 26 13 3 8 9 14 15 14 5 0 6 -6 2 -12 -6 -9 -3 -9 9 1 16 13 10 42 -12
55 -11 7 -23 -22 -14 -36 4 -7 1 -8 -6 -4 -7 5 -10 14 -7 22 6 16 -5 24 -42
30 -21 3 -23 2 -12 -6z m42 -29 c-4 -10 -7 -11 -10 -3 -2 7 -9 9 -14 6 -6 -4
-8 -3 -5 3 10 16 36 11 29 -6z m51 -5 c4 -10 1 -13 -8 -9 -8 3 -12 9 -9 14 7
12 11 11 17 -5z"/>
<path d="M2002 1865 c-17 -37 -14 -45 4 -12 9 16 14 31 11 33 -2 2 -9 -7 -15
-21z"/>
<path d="M2050 1882 c0 -4 10 -9 22 -9 18 -2 20 0 8 7 -18 12 -30 13 -30 2z"/>
<path d="M1953 1785 c0 -8 4 -12 9 -9 5 3 6 10 3 15 -9 13 -12 11 -12 -6z"/>
<path d="M1690 1764 c0 -6 5 -15 12 -22 8 -8 9 -18 1 -35 -9 -19 -8 -23 7 -23
12 0 17 6 15 18 -2 10 1 21 7 24 7 4 8 2 4 -4 -4 -7 -2 -12 4 -12 6 0 9 -4 6
-8 -2 -4 -1 -14 5 -22 6 -11 9 -11 10 -2 3 21 4 27 12 38 4 7 0 17 -8 24 -9 8
-15 8 -15 2 0 -16 -31 -7 -46 13 -8 10 -14 14 -14 9z"/>
<path d="M1790 1729 c0 -5 5 -7 10 -4 6 3 10 8 10 11 0 2 -4 4 -10 4 -5 0 -10
-5 -10 -11z"/>
<path d="M1895 1709 c-4 -6 -5 -12 -2 -15 2 -3 7 2 10 11 7 17 1 20 -8 4z"/>
<path d="M1421 1836 c-9 -11 -9 -16 1 -22 7 -4 10 -4 6 1 -4 4 -3 14 3 22 6 7
9 13 6 13 -2 0 -10 -6 -16 -14z"/>
<path d="M1556 1792 c-3 -6 1 -15 9 -22 8 -7 13 -16 10 -20 -3 -5 4 -6 15 -3
12 3 20 0 20 -6 0 -7 -5 -9 -12 -5 -7 4 -8 3 -4 -5 4 -6 11 -9 16 -6 4 3 11
-1 13 -7 4 -8 6 -7 6 4 1 17 16 18 41 3 11 -6 10 -2 -3 12 -9 11 -14 22 -11
26 3 3 -4 10 -15 17 -16 8 -21 8 -21 -1 0 -8 -4 -8 -15 1 -8 7 -15 9 -15 5 0
-4 -6 -2 -14 4 -8 7 -17 8 -20 3z m75 -27 c9 2 16 -3 16 -10 0 -7 -5 -12 -11
-10 -25 5 -46 18 -46 27 0 7 4 7 13 1 6 -6 19 -9 28 -8z"/>
<path d="M2030 546 c0 -2 8 -10 18 -17 15 -13 16 -12 3 4 -13 16 -21 21 -21
13z"/>
<path d="M2144 493 c2 -10 5 -16 8 -13 3 3 16 -4 28 -15 12 -10 32 -19 44 -20
13 0 30 -6 39 -13 9 -8 18 -9 21 -4 3 6 -1 15 -9 22 -8 7 -15 10 -15 6 0 -3
-12 4 -26 17 -14 12 -35 22 -47 22 -12 1 -27 4 -34 8 -7 4 -10 1 -9 -10z m59
-23 c4 0 5 5 2 10 -11 18 1 11 21 -12 13 -16 14 -19 2 -10 -11 9 -17 10 -20 2
-2 -7 -12 -1 -23 12 -11 13 -13 17 -5 11 8 -7 18 -13 23 -13z"/>
<path d="M2315 421 c-3 -5 -2 -12 3 -15 5 -3 9 1 9 9 0 17 -3 19 -12 6z"/>
<path d="M2350 401 c0 -5 7 -12 16 -15 14 -5 15 -4 4 9 -14 17 -20 19 -20 6z"/>
<path d="M2430 361 c0 -5 5 -13 10 -16 6 -3 10 -2 10 4 0 5 -4 13 -10 16 -5 3
-10 2 -10 -4z"/>
<path d="M2475 340 c3 -5 11 -10 16 -10 6 0 7 5 4 10 -3 6 -11 10 -16 10 -6 0
-7 -4 -4 -10z"/>
<path d="M2525 321 c-3 -5 -1 -12 5 -16 5 -3 10 -4 10 0 0 3 9 1 20 -5 28 -15
25 -6 -4 14 -14 9 -27 12 -31 7z"/>
<path d="M789 351 c13 -12 18 -21 12 -21 -7 0 -9 -5 -5 -12 6 -9 9 -9 12 1 4
11 6 11 13 0 6 -9 9 -10 9 -2 0 6 -15 21 -32 33 -32 21 -32 21 -9 1z"/>
<path d="M2926 311 c-14 -15 -15 -21 -4 -27 7 -4 10 -3 5 1 -4 5 0 17 10 27 9
10 14 18 11 18 -3 0 -13 -9 -22 -19z"/>
<path d="M2591 276 c-8 -10 -9 -16 -1 -21 5 -3 10 -5 11 -3 4 18 7 38 4 38 -1
0 -8 -6 -14 -14z"/>
<path d="M2636 272 c-3 -5 1 -13 10 -16 10 -4 13 -13 9 -28 -4 -16 -3 -19 3
-10 5 8 13 13 18 12 5 -1 9 3 11 10 1 7 0 7 -4 -1 -3 -6 -13 0 -23 16 -10 15
-20 22 -24 17z"/>
<path d="M2706 228 c3 -5 8 -7 10 -5 3 2 19 -9 36 -24 23 -22 34 -27 43 -19
10 8 17 6 28 -10 13 -18 15 -19 21 -5 8 22 8 27 -3 21 -4 -3 -17 1 -27 8 -13
10 -23 11 -31 4 -9 -7 -13 -7 -13 1 0 7 -4 10 -9 6 -6 -3 -14 2 -19 12 -5 9
-17 18 -26 19 -9 1 -13 -2 -10 -8z"/>
<path d="M2862 178 c-15 -15 -15 -28 -1 -28 5 0 8 4 4 9 -3 5 3 11 12 13 11 2
14 6 7 10 -6 4 -16 2 -22 -4z"/>
<path d="M1015 221 c-3 -5 -1 -12 5 -16 5 -3 10 -3 10 1 0 3 8 0 18 -7 14 -11
13 -10 -2 9 -22 25 -23 25 -31 13z"/>
<path d="M1145 130 c14 -15 22 -17 38 -9 15 8 22 8 28 -2 6 -10 11 -11 19 -3
9 9 8 14 -2 20 -17 12 -32 12 -39 1 -4 -6 -13 -6 -20 -1 -28 17 -41 13 -24 -6z"/>
<path d="M3150 3096 c0 -2 8 -10 18 -17 15 -13 16 -12 3 4 -13 16 -21 21 -21
13z"/>
<path d="M3093 3012 c-1 -10 6 -23 16 -29 14 -9 18 -8 18 3 0 7 -4 11 -8 8 -4
-2 -10 0 -14 6 -3 5 2 10 12 10 15 0 16 2 3 10 -21 14 -26 12 -27 -8z"/>
<path d="M3086 2971 c-4 -6 -4 -11 1 -11 4 0 1 -5 -7 -10 -8 -5 -10 -10 -5
-10 6 0 17 5 25 10 11 7 12 12 4 20 -9 9 -14 9 -18 1z"/>
<path d="M3100 2936 c0 -2 7 -7 16 -10 8 -3 12 -2 9 4 -6 10 -25 14 -25 6z"/>
<path d="M3069 2888 c-7 -25 -4 -34 15 -35 19 -2 19 -1 3 8 -9 6 -15 14 -12
20 4 5 4 9 1 9 -3 0 -6 -1 -7 -2z"/>
<path d="M3065 2831 c-2 -5 3 -15 12 -22 9 -8 14 -9 10 -2 -4 6 -2 13 5 15 8
3 6 7 -5 11 -9 3 -19 2 -22 -2z"/>
<path d="M3113 2795 c0 -8 4 -12 9 -9 5 3 6 10 3 15 -9 13 -12 11 -12 -6z"/>
<path d="M3070 2726 c0 -8 4 -17 9 -20 5 -4 7 3 4 14 -6 23 -13 26 -13 6z"/>
<path d="M3006 2657 c4 -23 22 -37 44 -36 11 1 10 3 -2 6 -22 6 -23 20 -2 25
10 2 5 7 -14 14 -28 11 -30 10 -26 -9z"/>
<path d="M2937 2569 c-9 -6 -15 -14 -12 -20 4 -5 1 -9 -4 -9 -6 0 -11 -5 -11
-11 0 -15 27 7 41 33 11 21 10 21 -14 7z"/>
<path d="M2975 2499 c-4 -6 -5 -12 -2 -15 2 -3 7 2 10 11 7 17 1 20 -8 4z"/>
<path d="M450 2206 c0 -9 -4 -16 -10 -16 -5 0 -10 -4 -10 -9 0 -6 9 -8 20 -6
12 2 20 -2 20 -9 0 -20 28 -39 56 -41 25 -1 63 30 51 42 -4 3 -7 1 -7 -7 0
-10 -4 -10 -17 1 -9 8 -14 9 -10 3 4 -7 1 -14 -6 -17 -10 -4 -13 3 -12 23 1
22 -2 27 -17 25 -10 -2 -18 1 -18 7 0 6 -3 8 -7 5 -3 -4 -12 -2 -20 4 -10 9
-13 8 -13 -5z m50 -19 c0 4 5 1 10 -9 6 -9 7 -24 4 -32 -5 -13 -9 -14 -21 -5
-7 7 -12 18 -9 26 5 12 -6 18 -27 14 -5 -1 -6 3 -2 9 4 7 12 7 26 0 10 -6 19
-7 19 -3z"/>
<path d="M490 2159 c0 -5 5 -7 10 -4 6 3 10 8 10 11 0 2 -4 4 -10 4 -5 0 -10
-5 -10 -11z"/>
<path d="M3461 2028 c-7 -11 -8 -17 -2 -13 6 3 11 1 11 -5 0 -6 5 -8 11 -4 8
4 7 9 -2 16 -10 7 -8 8 9 5 27 -6 28 -1 4 12 -14 7 -21 5 -31 -11z"/>
<path d="M3475 1899 c-4 -6 -5 -12 -2 -15 2 -3 7 2 10 11 7 17 1 20 -8 4z"/>
<path d="M3410 1875 c-8 -9 -8 -15 0 -20 6 -3 8 -11 4 -16 -3 -6 3 -5 15 2 15
10 17 16 8 22 -8 6 -4 7 11 4 27 -6 20 8 -7 16 -11 3 -25 -1 -31 -8z m17 -10
c0 -8 -4 -12 -9 -9 -5 3 -6 10 -3 15 9 13 12 11 12 -6z"/>
<path d="M3410 1814 c-14 -8 -17 -13 -7 -10 14 5 17 2 13 -12 -3 -9 -2 -23 3
-30 5 -9 8 -2 9 19 0 18 7 36 14 40 7 5 9 9 3 8 -5 0 -21 -7 -35 -15z"/>
<path d="M3460 1826 c0 -2 8 -10 18 -17 15 -13 16 -12 3 4 -13 16 -21 21 -21
13z"/>
<path d="M3389 1785 c-1 -3 -2 -8 -3 -12 -1 -5 -4 -13 -8 -19 -12 -18 11 -94
28 -94 2 0 0 9 -6 19 -13 26 -13 34 3 25 6 -4 3 3 -8 16 l-20 23 22 -12 c19
-10 22 -9 17 4 -3 8 -10 12 -15 9 -6 -3 -8 6 -5 20 3 14 3 26 0 26 -2 0 -5 -2
-5 -5z"/>
<path d="M3363 1679 c3 -9 0 -22 -6 -28 -8 -8 -8 -11 1 -11 7 0 12 5 12 11 0
5 6 7 13 3 7 -5 7 -1 -3 12 -22 29 -24 30 -17 13z"/>
<path d="M3345 1619 c3 -3 -2 -12 -10 -19 -8 -7 -13 -16 -10 -20 3 -5 1 -11
-5 -15 -6 -4 -8 -11 -4 -16 3 -5 10 -6 16 -3 6 4 9 1 6 -7 -3 -8 -10 -14 -16
-14 -19 0 -19 -18 0 -21 10 -1 17 1 16 4 -3 16 15 41 25 35 6 -4 7 -1 2 7 -4
7 -2 16 5 20 8 5 15 19 17 32 2 17 1 19 -6 8 -5 -8 -8 -17 -7 -20 5 -9 -33
-40 -39 -31 -2 5 2 14 10 21 8 7 12 16 9 21 -3 5 0 9 5 9 6 0 11 4 11 8 0 5
-7 9 -15 9 -8 0 -12 -4 -10 -8z"/>
<path d="M135 1561 c-3 -5 -2 -12 3 -15 5 -3 9 1 9 9 0 17 -3 19 -12 6z"/>
<path d="M3350 1499 c0 -5 5 -7 10 -4 6 3 10 8 10 11 0 2 -4 4 -10 4 -5 0 -10
-5 -10 -11z"/>
<path d="M3299 1483 c-1 -2 -2 -6 -3 -10 -1 -5 -5 -14 -9 -20 -5 -7 -5 -13 -1
-13 3 0 2 -6 -3 -12 -16 -22 -9 -41 17 -45 l25 -4 -23 16 c-12 9 -19 21 -16
27 4 5 9 6 13 2 17 -24 39 -35 47 -23 4 7 3 9 -3 6 -6 -4 -21 5 -33 18 -23 24
-16 35 8 15 9 -7 9 -7 2 2 -17 20 -11 31 8 17 15 -13 16 -12 4 3 -10 13 -10
17 0 21 7 3 3 4 -9 4 -13 -1 -24 -3 -24 -4z"/>
<path d="M215 1420 c3 -5 8 -10 11 -10 2 0 4 5 4 10 0 6 -5 10 -11 10 -5 0 -7
-4 -4 -10z"/>
<path d="M326 1358 c3 -4 9 -8 15 -8 5 0 9 4 9 8 0 5 -7 9 -15 9 -8 0 -12 -4
-9 -9z"/>
<path d="M3261 1356 c-13 -17 -10 -48 4 -36 7 5 15 8 19 5 3 -3 2 1 -4 7 -15
18 -12 32 3 19 10 -8 14 -7 14 2 0 16 -24 18 -36 3z"/>
<path d="M3310 1340 c0 -5 5 -10 11 -10 5 0 7 5 4 10 -3 6 -8 10 -11 10 -2 0
-4 -4 -4 -10z"/>
<path d="M380 1336 c0 -3 9 -10 20 -16 11 -6 20 -8 20 -6 0 3 -9 10 -20 16
-11 6 -20 8 -20 6z"/>
<path d="M295 1310 c-4 -6 1 -7 11 -3 11 4 15 3 10 -5 -3 -6 -1 -14 5 -18 8
-4 9 -3 5 4 -4 7 -1 12 6 12 9 0 9 3 -2 10 -19 12 -27 12 -35 0z"/>
<path d="M3270 1303 c0 -5 5 -15 10 -23 7 -12 9 -10 7 8 -1 19 -17 33 -17 15z"/>
<path d="M346 1283 c-6 -14 -5 -15 5 -6 7 7 10 15 7 18 -3 3 -9 -2 -12 -12z"/>
<path d="M3222 1248 c-8 -8 -9 -15 -1 -25 9 -10 8 -13 -1 -13 -7 0 -10 -6 -7
-14 3 -7 0 -19 -6 -26 -10 -10 -8 -10 10 -1 18 9 22 8 26 -7 4 -16 5 -16 6 1
0 10 -6 20 -14 23 -8 4 -12 10 -9 16 3 5 13 4 22 -4 15 -11 15 -10 0 8 -13 14
-15 23 -7 31 6 6 7 13 1 16 -5 4 -14 1 -20 -5z"/>
<path d="M396 1238 c3 -5 10 -6 15 -3 13 9 11 12 -6 12 -8 0 -12 -4 -9 -9z"/>
<path d="M3256 1218 c3 -5 10 -6 15 -3 13 9 11 12 -6 12 -8 0 -12 -4 -9 -9z"/>
<path d="M535 1160 c-3 -5 -1 -10 4 -10 6 0 11 5 11 10 0 6 -2 10 -4 10 -3 0
-8 -4 -11 -10z"/>
<path d="M670 1139 c0 -5 5 -7 10 -4 6 3 10 8 10 11 0 2 -4 4 -10 4 -5 0 -10
-5 -10 -11z"/>
<path d="M3190 1135 c-7 -8 -11 -15 -9 -16 39 -8 49 -6 60 9 11 14 11 15 0 5
-15 -13 -44 -6 -35 8 9 15 -2 10 -16 -6z"/>
<path d="M726 1125 c-11 -8 -17 -17 -14 -20 2 -3 13 4 23 15 21 23 18 25 -9 5z"/>
<path d="M3180 986 c0 -2 7 -7 16 -10 8 -3 12 -2 9 4 -6 10 -25 14 -25 6z"/>
<path d="M3140 940 c-8 -5 -11 -10 -6 -10 5 0 3 -7 -5 -16 -14 -17 -20 -74 -7
-74 4 0 6 14 4 30 -2 17 0 33 5 36 5 3 9 0 9 -5 0 -6 8 -11 18 -11 16 1 16 1
0 11 -9 5 -15 16 -12 24 4 8 10 12 15 9 5 -3 9 0 9 5 0 13 -10 14 -30 1z"/>
<path d="M3170 861 c0 -6 4 -13 10 -16 6 -3 7 1 4 9 -7 18 -14 21 -14 7z"/>
<path d="M1633 755 c0 -9 4 -14 9 -13 5 2 10 8 10 13 0 5 -5 11 -10 13 -5 1
-9 -4 -9 -13z"/>
<path d="M1619 728 c0 -2 -2 -14 -5 -27 -4 -21 -2 -22 12 -10 10 8 19 13 20
12 2 -1 11 0 19 3 8 4 22 1 29 -5 10 -8 16 -9 21 -1 6 10 5 11 -14 14 -5 0
-13 4 -17 8 -4 4 -13 3 -21 -3 -9 -9 -13 -8 -13 0 0 9 -28 17 -31 9z"/>
<path d="M1806 656 c19 -26 34 -33 34 -17 0 5 -12 16 -26 26 l-27 17 19 -26z"/>
<path d="M3032 635 c4 -5 3 -14 -4 -22 -6 -8 -7 -13 -2 -12 24 4 24 -3 0 -22
-14 -11 -23 -25 -20 -30 4 -6 11 -6 20 2 10 9 14 9 14 0 0 -6 -6 -14 -14 -17
-8 -3 -17 -11 -19 -18 -6 -14 30 -19 38 -5 4 5 -2 6 -12 2 -16 -6 -16 -5 -4
10 7 9 16 15 20 13 4 -3 6 12 5 32 0 20 3 39 7 42 5 3 -2 12 -14 19 -12 8 -19
10 -15 6z m14 -67 c4 -7 4 -10 -1 -6 -4 4 -15 2 -24 -5 -14 -11 -14 -10 -2 6
16 20 18 21 27 5z"/>
<path d="M1755 610 c-4 -6 -11 -7 -17 -4 -7 4 -8 2 -4 -5 6 -9 11 -9 22 0 14
11 18 19 10 19 -3 0 -8 -5 -11 -10z"/>
<path d="M1907 604 c3 -7 9 -14 14 -14 14 0 10 17 -5 23 -10 4 -13 1 -9 -9z"/>
<path d="M1535 600 c-3 -5 -1 -10 4 -10 6 0 11 5 11 10 0 6 -2 10 -4 10 -3 0
-8 -4 -11 -10z"/>
<path d="M1560 602 c0 -7 -11 -18 -25 -24 -18 -8 -22 -15 -15 -23 7 -8 4 -17
-9 -29 -14 -13 -20 -14 -23 -5 -3 10 -6 10 -12 1 -4 -7 -2 -12 5 -12 6 0 0 -9
-15 -21 -21 -16 -24 -24 -16 -35 17 -20 2 -38 -18 -22 -10 7 -14 8 -10 4 4 -5
3 -15 -3 -22 -7 -8 -7 -14 1 -19 11 -7 14 -26 3 -23 -16 5 -96 -54 -84 -61 8
-5 6 -13 -9 -26 -11 -10 -17 -21 -15 -25 3 -5 -7 -23 -22 -42 -15 -18 -20 -27
-11 -20 11 9 18 10 23 2 10 -16 28 -12 21 5 -6 16 26 39 39 27 5 -4 5 -2 1 5
-3 6 -2 14 3 17 5 4 12 -2 15 -11 4 -14 4 -14 3 2 -2 14 -9 19 -22 16 -20 -3
-20 -3 0 19 18 20 20 20 27 3 7 -14 7 -13 4 5 -3 18 -1 22 10 18 9 -3 12 -1 9
4 -7 12 7 13 21 3 5 -5 1 0 -9 10 -11 9 -16 18 -13 18 10 2 25 6 34 9 4 1 10
2 15 1 4 0 7 4 7 9 0 14 -13 13 -28 -2 -21 -21 -12 6 12 36 14 16 22 35 19 42
-5 13 21 14 33 1 11 -10 24 -8 24 4 0 5 -4 7 -10 4 -5 -3 -10 -1 -10 5 0 6 -8
10 -17 8 -10 -2 -19 4 -21 15 -2 9 2 17 8 17 6 0 8 -4 5 -10 -3 -5 -1 -10 5
-10 7 0 10 7 6 18 -5 14 -4 14 9 -2 11 -15 15 -16 16 -5 0 8 3 6 8 -5 7 -19 8
-19 13 2 4 12 2 20 -2 17 -19 -11 -16 11 3 30 18 18 19 18 14 2 -4 -11 -3 -16
3 -12 6 3 10 1 10 -6 0 -7 3 -10 6 -7 3 4 1 15 -4 25 -7 12 -7 25 -1 36 7 11
6 23 0 35 -6 10 -11 12 -11 4z m10 -22 c0 -5 -13 -25 -30 -43 -16 -19 -26 -38
-22 -42 4 -5 1 -5 -6 -1 -11 7 -9 13 6 30 11 11 17 27 15 34 -3 6 2 12 11 12
9 0 16 5 16 10 0 6 2 10 5 10 3 0 5 -4 5 -10z m-112 -170 c-7 -11 -17 -19 -21
-17 -11 3 -9 22 2 22 5 0 13 3 17 8 13 13 14 7 2 -13z m-48 -65 c-7 -8 -9 -15
-5 -15 4 0 -5 -10 -21 -22 -35 -27 -44 -39 -37 -51 3 -5 -4 -15 -16 -23 -12
-9 -18 -20 -15 -26 5 -7 2 -8 -5 -4 -9 6 -8 13 5 27 9 11 14 22 11 26 -4 3 5
17 19 30 14 12 20 23 14 23 -6 0 -8 5 -4 11 4 8 9 7 15 -2 5 -8 9 -11 9 -6 0
19 30 60 38 52 3 -3 -1 -11 -8 -20z"/>
<path d="M1630 598 c0 -4 4 -8 9 -8 6 0 12 4 15 8 3 5 -1 9 -9 9 -8 0 -15 -4
-15 -9z"/>
<path d="M1845 560 c10 -11 20 -20 23 -20 3 0 -3 9 -13 20 -10 11 -20 20 -23
20 -3 0 3 -9 13 -20z"/>
<path d="M3074 556 c1 -8 5 -18 8 -22 4 -3 5 1 4 10 -1 8 -5 18 -8 22 -4 3 -5
-1 -4 -10z"/>
<path d="M577 523 c-3 -5 5 -8 18 -8 13 0 21 3 18 8 -2 4 -10 7 -18 7 -8 0
-16 -3 -18 -7z"/>
<path d="M628 438 c5 -5 16 -8 23 -6 8 3 3 7 -10 11 -17 4 -21 3 -13 -5z"/>
<path d="M3015 440 c-3 -6 1 -7 9 -4 18 7 21 14 7 14 -6 0 -13 -4 -16 -10z"/>
<path d="M1492 425 c4 -4 0 -14 -10 -21 -14 -10 -15 -15 -4 -26 11 -11 12 -10
6 6 -5 13 -4 17 3 13 6 -4 13 0 17 8 3 8 0 17 -7 21 -7 4 -9 4 -5 -1z"/>
<path d="M2275 380 c-3 -6 1 -7 9 -4 18 7 21 14 7 14 -6 0 -13 -4 -16 -10z"/>
<path d="M715 330 c-3 -5 -1 -10 4 -10 6 0 11 5 11 10 0 6 -2 10 -4 10 -3 0
-8 -4 -11 -10z"/>
<path d="M860 316 c0 -2 8 -10 18 -17 15 -13 16 -12 3 4 -13 16 -21 21 -21 13z"/>
<path d="M2390 311 c0 -6 4 -13 10 -16 6 -3 7 1 4 9 -7 18 -14 21 -14 7z"/>
<path d="M2962 280 c-15 -25 -15 -30 0 -30 6 0 8 3 5 7 -4 3 -2 12 5 20 6 7 9
15 7 18 -3 2 -10 -5 -17 -15z"/>
<path d="M1410 276 c0 -8 4 -17 8 -20 4 -2 8 4 8 15 0 10 -4 19 -8 19 -4 0 -8
-6 -8 -14z"/>
<path d="M867 239 c7 -7 15 -10 18 -7 3 3 -2 9 -12 12 -14 6 -15 5 -6 -5z"/>
<path d="M896 222 c-3 -5 1 -9 9 -9 8 0 12 4 9 9 -3 4 -7 8 -9 8 -2 0 -6 -4
-9 -8z"/>
<path d="M2570 220 c0 -5 5 -10 11 -10 5 0 7 5 4 10 -3 6 -8 10 -11 10 -2 0
-4 -4 -4 -10z"/>
<path d="M1348 213 c7 -3 16 -2 19 1 4 3 -2 6 -13 5 -11 0 -14 -3 -6 -6z"/>
<path d="M1346 178 c3 -5 10 -6 15 -3 13 9 11 12 -6 12 -8 0 -12 -4 -9 -9z"/>
<path d="M1020 159 c0 -5 5 -7 10 -4 6 3 10 8 10 11 0 2 -4 4 -10 4 -5 0 -10
-5 -10 -11z"/>
<path d="M2676 138 c3 -5 10 -6 15 -3 13 9 11 12 -6 12 -8 0 -12 -4 -9 -9z"/>
<path d="M2910 136 c0 -2 8 -10 18 -17 15 -13 16 -12 3 4 -13 16 -21 21 -21
13z"/>
<path d="M1300 126 c0 -2 7 -7 16 -10 8 -3 12 -2 9 4 -6 10 -25 14 -25 6z"/>
<path d="M2755 119 c-3 -4 2 -6 10 -5 21 3 28 13 10 13 -9 0 -18 -4 -20 -8z"/>
<path d="M1110 116 c0 -2 8 -10 18 -17 15 -13 16 -12 3 4 -13 16 -21 21 -21
13z"/>
<path d="M2885 100 c-3 -6 1 -7 9 -4 18 7 21 14 7 14 -6 0 -13 -4 -16 -10z"/>
<path d="M1180 86 c0 -2 7 -7 16 -10 8 -3 12 -2 9 4 -6 10 -25 14 -25 6z"/>
</g>
</svg>
